<?xml version="1.0" encoding="UTF-8" ?>
<!DOCTYPE svg PUBLIC "-//W3C//DTD SVG 1.1//EN" "http://www.w3.org/Graphics/SVG/1.1/DTD/svg11.dtd">
<svg width="459pt" height="237pt" viewBox="0 0 459 237" version="1.1" xmlns="http://www.w3.org/2000/svg">
<g id="#ffffffff">
<path fill="#ffffff" opacity="1.00" d=" M 0.00 0.00 L 459.00 0.00 L 459.00 237.00 L 0.00 237.00 L 0.00 0.00 M 237.98 5.25 C 238.02 5.81 238.09 6.93 238.13 7.49 C 239.76 7.83 241.39 8.18 243.02 8.53 C 243.00 7.99 242.96 6.92 242.94 6.38 C 241.28 6.00 239.63 5.62 237.98 5.25 M 212.16 7.38 C 211.84 8.63 211.52 9.88 211.21 11.12 C 212.88 12.30 214.55 13.48 216.22 14.66 C 215.47 16.44 214.80 18.26 214.18 20.09 C 217.43 22.73 221.37 24.22 225.43 25.11 C 224.44 23.75 223.46 22.39 222.49 21.01 L 226.13 22.21 C 223.79 19.33 221.03 16.85 218.09 14.61 C 219.39 14.47 220.69 14.33 221.99 14.19 C 222.00 12.80 222.01 11.41 222.02 10.03 C 220.70 8.96 219.38 7.90 218.05 6.85 C 216.08 7.03 214.12 7.21 212.16 7.38 M 255.64 8.08 C 256.34 10.34 257.78 12.21 259.51 13.79 C 260.80 12.01 261.22 9.99 260.26 7.93 C 258.71 7.97 257.18 8.02 255.64 8.08 M 240.93 13.14 C 241.07 14.62 240.78 16.20 241.32 17.61 C 243.83 20.25 247.18 21.87 250.58 23.06 C 250.54 22.03 250.44 19.97 250.40 18.94 C 248.18 15.82 245.25 12.23 240.93 13.14 M 307.29 19.35 C 306.72 20.99 306.69 23.19 308.94 23.27 C 308.58 21.96 309.73 18.45 307.29 19.35 M 230.23 20.73 C 231.52 24.50 234.47 27.23 237.30 29.88 C 226.60 31.59 215.51 28.89 205.04 32.22 C 206.92 42.15 209.11 52.02 211.05 61.93 C 219.46 59.21 228.81 59.22 237.23 61.85 C 242.89 63.56 247.17 68.30 248.92 73.88 C 249.72 72.54 250.52 71.20 251.32 69.85 C 251.69 70.41 252.06 70.97 252.44 71.53 C 250.55 73.63 249.95 76.29 250.48 79.04 C 252.90 79.60 255.39 80.36 257.89 79.92 C 260.24 79.14 261.50 76.80 262.97 74.98 C 263.70 75.86 264.45 76.73 265.19 77.61 C 263.80 78.30 262.42 78.97 261.03 79.64 C 264.17 79.61 267.99 77.82 270.62 80.25 C 277.12 85.86 282.38 92.78 289.00 98.27 C 287.24 95.81 284.87 93.77 283.55 91.00 C 286.45 88.68 282.65 86.13 281.49 84.04 C 283.28 82.38 285.41 81.17 287.78 80.55 C 290.90 68.14 284.69 54.85 275.33 46.70 C 267.22 39.15 256.71 35.20 246.45 31.57 C 248.15 30.93 249.88 30.32 251.60 29.71 C 250.22 28.44 248.93 26.91 246.93 26.74 C 240.90 25.71 236.77 19.36 230.23 20.73 M 331.01 22.04 C 331.83 22.76 332.62 23.49 333.40 24.26 C 332.91 27.22 332.35 30.19 332.18 33.20 C 332.87 32.03 333.56 30.86 334.27 29.69 C 335.27 30.54 336.27 31.39 337.27 32.25 C 334.01 40.87 330.77 49.50 327.24 58.01 C 327.68 58.21 328.56 58.60 329.00 58.80 C 326.51 61.06 324.55 63.81 323.09 66.83 C 321.62 65.22 320.75 63.28 320.81 61.08 C 322.36 59.79 323.98 58.58 325.66 57.47 C 324.49 57.58 323.34 57.80 322.17 57.89 C 322.00 55.78 322.25 53.66 322.47 51.56 C 324.67 49.91 325.54 46.91 323.91 44.53 C 323.95 43.59 324.03 42.66 324.15 41.74 C 326.75 39.83 328.77 37.29 331.04 35.03 C 329.17 35.02 327.31 35.01 325.45 35.00 C 324.62 37.94 323.58 40.82 322.74 43.75 C 321.53 43.53 320.33 43.31 319.13 43.10 C 320.69 44.23 322.25 45.38 323.78 46.57 C 321.02 46.67 318.86 48.18 317.09 50.16 C 316.70 49.60 315.91 48.48 315.52 47.92 L 315.91 49.17 C 314.76 49.24 313.62 49.32 312.48 49.42 C 312.48 50.53 312.49 51.65 312.50 52.76 C 312.90 52.75 313.70 52.72 314.10 52.71 C 314.64 51.51 315.24 50.33 315.91 49.20 C 318.64 53.18 317.16 57.73 316.46 62.05 C 317.97 64.22 319.22 66.57 320.02 69.10 C 320.95 69.40 321.89 69.69 322.84 69.97 C 318.06 81.41 313.32 92.87 308.93 104.47 C 308.34 103.92 307.15 102.82 306.55 102.26 C 307.39 117.45 298.83 130.81 294.84 144.99 C 293.31 148.99 293.87 153.76 290.86 157.13 C 291.77 156.76 293.60 156.03 294.51 155.67 C 292.93 157.34 290.82 158.34 288.98 159.69 C 289.13 160.77 289.33 161.84 289.59 162.90 L 291.57 161.52 C 292.52 163.41 293.29 165.39 293.90 167.42 C 292.44 167.41 290.98 167.43 289.52 167.44 C 289.46 166.49 289.32 164.61 289.25 163.67 C 288.98 163.56 288.44 163.35 288.17 163.25 C 287.93 163.85 287.45 165.05 287.21 165.65 C 288.43 168.94 290.27 171.97 291.36 175.31 C 292.71 174.63 294.00 175.28 295.25 175.91 C 292.82 177.62 290.26 179.12 287.57 180.37 C 287.98 181.37 288.39 182.38 288.79 183.39 C 291.46 182.36 294.25 182.33 296.61 184.10 C 294.43 185.06 292.05 185.29 289.70 185.41 C 296.88 187.79 304.44 186.17 311.81 187.13 C 312.00 188.11 312.17 189.10 312.34 190.09 C 313.28 189.07 314.10 187.88 315.30 187.13 C 316.63 187.00 317.85 187.72 319.11 188.05 C 323.14 182.83 324.97 176.37 327.42 170.34 C 324.94 170.79 322.45 171.24 319.93 171.23 C 324.90 169.00 328.15 164.51 330.37 159.70 C 331.52 159.78 332.73 160.57 333.83 159.84 C 338.92 157.37 343.24 153.53 348.45 151.26 C 349.56 155.02 345.69 156.63 342.87 157.72 C 346.55 157.22 350.28 157.08 354.00 157.01 C 362.05 156.90 370.08 158.82 378.13 157.69 C 389.67 156.02 400.46 150.73 412.20 150.11 C 410.52 151.76 408.72 153.27 406.88 154.73 C 412.98 152.45 419.45 150.57 425.95 152.40 C 410.91 111.37 395.51 70.47 380.34 29.49 C 373.78 29.53 367.21 29.44 360.65 29.55 C 361.39 34.08 362.00 38.67 363.72 42.96 C 362.06 43.27 360.41 43.57 358.76 43.89 C 360.00 39.17 359.64 34.23 358.54 29.53 C 352.66 29.27 346.46 29.78 341.00 27.17 C 340.26 27.87 339.53 28.57 338.80 29.27 C 337.22 27.08 336.21 24.56 336.02 21.85 C 334.35 21.93 332.68 21.99 331.01 22.04 M 20.00 26.75 C 20.03 66.28 19.93 105.80 20.06 145.33 C 21.84 145.69 23.72 146.06 24.98 147.51 C 26.85 146.45 28.85 145.66 30.93 145.11 L 31.49 144.74 C 29.96 143.02 31.38 141.20 31.95 139.53 L 30.94 139.78 C 30.90 138.64 30.86 137.50 30.83 136.36 C 32.52 136.38 34.22 136.51 35.91 136.39 C 36.89 135.41 37.69 134.28 38.53 133.18 C 40.22 133.22 41.84 133.68 43.34 134.44 C 43.14 136.07 43.71 137.59 44.32 139.07 C 45.05 136.31 46.31 133.68 48.64 131.91 C 50.43 133.89 52.17 135.92 53.79 138.04 C 53.04 139.05 52.30 140.07 51.57 141.09 C 54.73 139.45 57.93 134.80 61.78 137.44 C 61.78 134.75 62.15 132.08 62.84 129.49 C 65.68 129.49 68.53 129.51 71.37 129.55 C 71.90 126.87 74.30 128.39 75.97 128.76 C 84.51 131.44 93.69 127.40 102.13 130.74 C 110.92 133.78 115.55 142.94 117.31 151.53 C 119.64 163.88 118.94 176.69 122.47 188.84 C 136.23 189.21 150.00 188.89 163.76 189.00 C 162.53 185.02 161.33 181.02 160.44 176.95 C 157.34 163.74 158.26 149.95 155.07 136.75 C 152.49 126.76 145.38 118.14 136.04 113.75 C 133.89 113.38 136.15 112.19 136.74 111.80 C 144.36 107.76 150.99 101.57 154.66 93.68 C 159.34 83.84 159.98 72.45 158.13 61.84 C 154.61 44.51 139.58 30.18 122.10 27.51 C 118.10 26.92 114.04 26.83 110.00 26.75 C 80.00 26.75 50.00 26.75 20.00 26.75 M 306.08 30.18 C 307.94 30.27 309.79 30.32 311.66 30.38 C 311.28 31.00 310.53 32.23 310.15 32.85 C 310.60 33.09 311.49 33.58 311.94 33.82 C 312.73 32.73 313.56 31.66 314.29 30.51 C 314.82 29.01 312.29 29.45 311.48 29.63 C 311.25 28.98 310.78 27.67 310.54 27.02 C 309.07 28.10 307.57 29.14 306.08 30.18 M 329.39 28.83 C 328.52 30.47 327.28 32.49 329.69 33.51 C 330.36 31.82 331.75 29.76 329.39 28.83 M 176.84 42.02 C 178.52 41.09 180.11 40.02 181.69 38.92 C 182.41 40.97 183.27 42.98 184.23 44.94 C 181.54 41.61 177.42 44.28 173.95 42.99 C 170.18 43.84 168.30 47.72 166.81 50.91 C 162.48 61.69 159.59 73.99 163.73 85.29 C 165.30 90.46 169.16 94.32 172.73 98.17 C 173.60 91.79 175.15 85.51 175.50 79.06 C 175.72 75.19 175.96 71.31 176.56 67.48 C 175.87 67.29 174.48 66.92 173.79 66.73 C 175.52 65.98 178.03 65.54 178.25 63.24 C 179.34 58.12 180.36 52.96 181.03 47.76 C 178.93 49.73 177.33 52.12 175.85 54.57 C 175.57 52.03 175.33 49.48 174.83 46.97 C 178.23 46.66 181.66 46.49 184.94 45.47 C 185.01 46.24 185.16 47.79 185.24 48.56 C 186.81 46.51 188.13 44.28 189.39 42.03 C 190.74 43.69 192.09 45.35 193.43 47.02 C 192.27 48.05 191.11 49.08 189.96 50.12 C 191.72 50.20 193.49 50.29 195.26 50.40 C 194.23 51.77 193.06 53.02 191.85 54.23 C 192.74 54.43 194.52 54.81 195.41 55.00 C 194.48 56.66 193.56 58.31 192.71 60.01 C 194.39 59.01 195.99 57.86 197.79 57.08 L 198.45 58.14 C 196.65 61.15 193.70 63.84 194.47 67.70 C 195.94 68.55 196.94 69.84 197.26 71.53 C 199.91 69.66 201.49 66.80 203.06 64.05 C 204.22 61.92 205.97 59.59 204.95 57.03 C 202.61 47.89 199.34 39.01 196.57 29.99 C 189.71 33.40 182.05 36.16 176.84 42.02 M 319.02 37.26 C 322.25 37.48 321.79 33.64 322.61 31.50 C 319.24 31.16 319.72 35.07 319.02 37.26 M 305.80 41.55 C 307.02 43.55 307.04 47.75 310.28 47.16 C 309.15 45.12 308.78 41.50 305.80 41.55 M 188.55 68.04 C 189.16 81.01 183.73 92.97 180.57 105.27 C 192.66 112.36 206.44 115.61 219.83 119.27 C 219.54 117.18 219.30 115.06 219.58 112.95 C 222.01 115.80 223.11 119.43 224.43 122.87 C 229.87 124.92 235.52 126.51 240.68 129.24 C 244.39 131.36 248.17 134.08 249.79 138.20 C 251.70 142.99 249.47 148.54 245.65 151.70 C 241.29 155.41 235.23 158.25 229.48 156.29 C 229.50 155.46 229.52 153.80 229.53 152.97 C 225.03 154.20 220.29 153.80 215.87 152.43 C 210.64 150.79 204.85 149.27 201.18 144.89 C 199.64 142.91 197.55 141.52 195.56 140.05 C 197.76 137.16 196.66 133.41 196.55 130.09 C 193.22 128.34 190.64 125.62 188.02 122.99 C 188.69 124.34 189.39 125.67 190.09 127.01 C 189.19 127.81 188.29 128.61 187.39 129.42 C 184.41 129.82 180.31 128.73 178.46 131.74 C 179.22 131.60 180.76 131.30 181.53 131.16 C 181.62 131.85 181.80 133.24 181.89 133.94 C 180.74 134.69 179.58 135.42 178.41 136.13 C 177.83 134.04 177.49 131.91 177.32 129.75 C 170.72 129.75 164.11 129.75 157.51 129.75 C 157.67 135.44 156.64 141.47 159.27 146.78 C 161.70 151.94 164.25 157.47 169.04 160.87 C 169.64 158.86 170.00 156.78 170.15 154.68 C 169.28 155.45 168.42 156.22 167.57 157.00 C 166.81 156.13 166.06 155.27 165.31 154.41 C 165.88 152.55 166.43 150.69 166.98 148.82 C 168.36 149.13 169.75 149.44 171.14 149.75 C 171.62 148.44 172.09 147.13 172.57 145.83 C 170.96 143.38 169.36 140.89 168.41 138.10 C 170.02 139.41 171.43 140.94 172.78 142.52 C 173.95 141.73 175.13 140.96 176.32 140.21 C 175.86 142.56 175.05 144.81 174.24 147.05 C 178.45 150.64 182.86 154.00 186.96 157.71 C 186.12 158.09 185.28 158.48 184.45 158.88 C 182.39 156.19 179.63 154.28 176.08 154.82 C 174.00 156.51 171.79 158.18 170.65 160.68 C 171.55 161.42 172.45 162.15 173.35 162.88 C 172.25 162.84 170.03 162.76 168.93 162.72 C 173.28 169.51 180.43 173.82 187.42 177.45 C 201.73 183.67 217.74 182.06 232.92 183.21 C 236.38 184.31 239.15 187.82 243.10 186.91 C 260.10 186.37 275.79 175.85 284.18 161.30 C 290.34 150.40 291.57 136.92 287.96 124.98 C 285.01 115.42 277.60 107.80 268.91 103.14 C 262.08 99.11 254.28 97.30 247.21 93.82 C 236.32 91.67 226.14 87.04 215.86 83.00 C 216.76 89.04 218.51 94.90 219.54 100.91 C 220.13 103.76 219.58 106.65 218.71 109.37 C 215.36 100.46 213.24 91.15 210.55 82.04 C 210.15 80.16 208.43 79.09 207.13 77.86 C 204.60 75.74 202.27 73.41 199.90 71.13 C 199.89 73.34 200.09 75.57 201.29 77.49 C 200.38 77.35 198.57 77.06 197.67 76.92 C 199.27 79.10 202.84 81.18 200.96 84.27 C 195.08 80.28 193.34 72.96 188.55 68.04 M 411.94 96.76 C 412.00 98.33 412.07 99.90 412.16 101.47 C 412.70 101.39 413.78 101.22 414.32 101.13 C 414.15 99.22 414.98 96.27 411.94 96.76 M 272.10 101.56 C 272.07 102.11 272.01 103.21 271.98 103.75 C 273.63 103.35 275.29 102.95 276.95 102.55 C 276.95 102.00 276.96 100.91 276.96 100.37 C 275.34 100.77 273.71 101.17 272.10 101.56 M 289.00 105.77 C 289.49 106.00 290.48 106.48 290.97 106.72 C 291.37 105.37 291.74 104.00 292.05 102.63 C 290.72 103.35 289.85 104.56 289.00 105.77 M 192.82 122.59 C 195.11 125.47 197.69 128.19 199.14 131.62 C 202.73 130.32 206.55 131.26 210.20 130.43 C 207.87 130.04 205.50 130.19 203.17 129.92 C 199.24 128.23 196.38 124.88 192.82 122.59 M 215.52 131.32 C 217.46 131.08 220.76 132.14 220.21 128.92 C 218.17 129.03 215.13 128.29 215.52 131.32 M 220.80 129.02 C 219.91 132.14 225.05 132.10 224.25 129.02 C 223.39 129.02 221.66 129.02 220.80 129.02 M 229.27 129.15 C 229.36 129.67 229.53 130.73 229.61 131.26 C 230.54 131.26 231.47 131.26 232.40 131.26 C 232.47 130.71 232.62 129.63 232.69 129.09 C 231.55 129.10 230.41 129.12 229.27 129.15 M 235.00 129.00 C 235.00 129.59 235.00 130.78 235.00 131.37 C 236.72 131.38 238.55 131.35 238.23 129.02 C 237.43 129.02 235.81 129.00 235.00 129.00 M 60.48 139.14 C 60.05 140.40 59.63 141.66 59.20 142.93 C 59.87 143.12 60.54 143.32 61.21 143.53 C 61.66 142.02 62.11 140.51 62.55 139.00 C 62.03 139.03 61.00 139.10 60.48 139.14 M 34.34 151.16 C 33.82 149.84 33.35 148.49 32.76 147.20 C 31.02 147.12 30.09 149.00 28.66 149.71 C 26.64 151.34 24.24 149.85 22.18 149.16 C 23.17 151.69 23.99 154.29 24.39 156.99 C 25.09 154.54 26.58 152.46 28.69 151.02 C 28.16 156.21 28.76 161.76 26.51 166.61 C 25.65 168.75 23.42 169.64 21.45 170.47 C 19.54 173.05 17.48 175.53 15.05 177.64 C 17.33 177.00 19.65 176.50 21.97 176.08 C 22.01 182.39 22.01 188.70 22.01 195.01 C 22.17 201.06 17.73 206.04 17.46 212.02 C 18.03 216.37 22.25 218.68 25.35 221.20 C 29.85 205.20 35.47 189.48 38.77 173.18 C 41.98 176.39 41.95 181.57 45.33 184.70 C 47.13 186.33 48.08 188.76 50.00 190.21 C 54.04 190.29 57.98 189.11 62.00 188.87 C 62.00 185.43 62.00 181.99 62.00 178.56 C 59.41 180.72 56.69 182.71 53.79 184.44 C 52.44 182.99 50.81 181.71 49.96 179.89 C 49.27 178.03 50.19 176.17 51.05 174.56 C 53.07 175.15 54.98 176.05 57.02 176.59 C 59.63 176.31 61.33 174.11 62.37 171.90 C 60.33 172.95 58.51 174.77 56.13 174.96 C 54.42 174.36 52.93 172.74 51.00 172.99 C 49.65 173.81 48.54 174.97 47.36 176.01 C 46.82 174.22 45.62 172.84 44.04 171.89 C 44.03 171.08 44.03 169.47 44.03 168.66 C 45.47 169.25 46.90 169.87 48.31 170.53 C 48.24 167.52 48.24 164.51 48.22 161.50 C 46.00 162.32 43.79 163.19 41.45 163.60 C 42.20 161.67 43.52 160.07 44.90 158.56 C 43.46 158.37 42.02 158.16 40.59 157.93 C 42.02 156.53 43.51 155.21 45.02 153.90 C 43.14 153.81 41.26 153.60 39.46 153.02 C 40.86 151.50 42.20 149.86 42.70 147.81 C 41.98 148.07 40.54 148.59 39.81 148.85 C 39.51 147.20 39.33 145.53 39.43 143.85 C 37.96 146.44 36.19 148.84 34.34 151.16 M 175.34 150.29 C 174.98 150.66 174.25 151.40 173.89 151.78 C 175.18 152.80 176.42 154.08 178.22 154.03 C 177.32 152.73 176.34 151.50 175.34 150.29 M 399.56 155.17 C 401.01 156.02 402.61 155.74 403.95 154.82 C 404.00 151.80 400.69 154.35 399.56 155.17 M 57.26 154.20 C 55.95 156.09 54.61 157.96 53.30 159.85 C 54.03 160.20 54.76 160.54 55.49 160.89 C 56.74 159.04 58.01 157.21 59.23 155.34 C 58.74 155.05 57.76 154.48 57.26 154.20 M 419.01 154.56 C 418.33 157.94 422.44 156.81 424.58 157.37 C 424.67 156.88 424.84 155.90 424.92 155.41 C 422.95 155.12 420.98 154.83 419.01 154.56 M 387.89 156.87 C 387.57 158.19 387.02 159.64 388.28 160.68 C 388.27 162.37 388.25 164.06 388.22 165.75 C 390.70 165.73 393.22 165.95 395.68 165.51 C 398.59 164.77 400.73 162.51 402.93 160.61 C 398.13 160.30 393.33 160.25 388.54 160.13 C 389.92 159.07 391.34 158.06 392.75 157.04 C 391.13 156.99 389.51 156.93 387.89 156.87 M 413.22 165.19 C 412.17 165.13 410.09 165.01 409.05 164.95 C 410.52 166.16 411.99 167.39 413.46 168.61 C 412.87 169.13 411.68 170.16 411.08 170.68 C 407.90 167.75 401.83 168.72 401.06 173.37 C 407.40 174.35 413.85 174.56 420.27 174.51 C 420.56 173.30 420.86 172.10 421.17 170.89 C 420.11 171.42 418.20 174.29 417.50 171.84 C 419.38 169.06 421.49 166.44 423.54 163.78 C 423.28 168.41 424.25 172.92 427.07 176.68 C 422.40 177.40 418.32 179.84 414.23 182.02 C 414.41 181.00 414.77 178.97 414.96 177.95 C 409.13 180.23 403.84 174.67 397.90 176.52 C 399.95 176.72 402.01 176.77 404.08 176.78 C 405.75 178.87 407.02 181.27 407.67 183.88 C 403.70 180.72 398.93 179.16 393.89 178.95 C 394.95 181.48 395.85 184.08 396.27 186.80 C 410.23 186.69 424.20 186.78 438.16 186.75 C 437.79 184.42 437.30 182.11 436.80 179.81 C 434.32 181.90 431.97 184.75 428.42 184.70 C 429.81 178.53 430.60 172.18 430.17 165.86 C 429.50 165.62 428.15 165.13 427.48 164.89 C 428.64 164.08 429.82 163.30 430.97 162.47 C 429.30 161.91 427.63 161.38 425.94 160.93 C 426.01 161.63 426.17 163.02 426.24 163.72 C 424.30 162.63 422.38 161.08 420.06 161.02 C 417.44 161.74 415.28 163.49 413.22 165.19 M 403.89 163.34 C 401.86 164.28 399.83 165.20 397.78 166.08 C 398.19 166.93 398.58 167.80 398.94 168.68 C 396.10 169.16 393.21 169.00 390.36 169.04 C 391.36 171.91 392.80 174.60 394.47 177.14 C 397.72 172.61 400.91 168.05 403.89 163.34 M 57.66 165.71 C 57.56 166.21 57.37 167.22 57.27 167.72 C 58.47 167.35 59.67 166.98 60.88 166.61 C 60.86 166.06 60.82 164.96 60.81 164.40 C 59.76 164.84 58.71 165.28 57.66 165.71 M 287.36 174.17 C 287.98 173.62 288.60 173.08 289.23 172.54 C 288.21 171.16 287.23 169.77 286.11 168.48 C 283.47 170.13 286.62 172.34 287.36 174.17 M 431.40 180.24 C 433.20 179.74 434.81 178.79 436.33 177.73 C 435.24 176.13 434.11 174.56 432.96 172.99 C 432.42 175.40 431.88 177.81 431.40 180.24 M 103.71 174.39 C 103.73 175.39 103.74 176.39 103.76 177.40 C 104.28 177.48 105.34 177.64 105.86 177.72 C 105.89 176.49 105.91 175.27 105.92 174.05 C 105.37 174.13 104.27 174.30 103.71 174.39 M 284.44 174.49 C 284.17 177.72 282.89 180.71 280.94 183.29 C 281.87 182.81 283.74 181.84 284.67 181.36 L 285.05 182.77 C 285.73 181.55 287.10 180.15 285.41 178.77 C 286.15 177.82 286.88 176.86 287.64 175.91 C 286.56 175.45 285.50 174.97 284.44 174.49 M 341.19 173.79 C 340.98 174.31 340.56 175.34 340.35 175.85 C 341.63 176.41 342.90 176.95 344.20 177.47 C 344.38 175.41 342.66 174.64 341.19 173.79 M 109.50 176.56 C 109.49 177.61 109.49 178.66 109.48 179.71 C 110.05 179.73 111.20 179.77 111.77 179.79 C 111.73 178.65 111.69 177.51 111.66 176.37 C 111.12 176.42 110.04 176.51 109.50 176.56 M 38.64 177.49 C 37.81 180.86 37.22 184.29 36.39 187.66 C 36.92 187.69 37.98 187.75 38.51 187.78 C 38.83 184.25 40.89 180.61 39.85 177.14 C 39.55 177.23 38.94 177.40 38.64 177.49 M 89.83 177.15 C 90.24 178.36 90.05 179.94 90.96 180.92 C 92.43 181.01 93.92 181.03 95.40 180.98 C 93.76 179.40 91.87 178.14 89.83 177.15 M 279.56 186.60 C 282.57 186.42 285.60 186.17 288.61 186.53 C 288.29 185.71 287.98 184.90 287.68 184.08 C 284.68 182.84 280.44 182.77 279.56 186.60 M 356.51 190.97 C 356.46 192.53 356.40 194.09 356.33 195.65 C 357.30 195.04 358.28 194.43 359.27 193.84 C 358.34 192.89 357.44 191.92 356.51 190.97 M 395.48 191.28 C 395.48 192.35 395.50 193.42 395.51 194.49 C 396.07 194.50 397.17 194.53 397.73 194.54 C 397.73 193.43 397.74 192.32 397.75 191.22 C 397.18 191.23 396.05 191.26 395.48 191.28 M 19.74 223.54 C 19.73 224.52 19.72 226.47 19.71 227.44 C 158.23 227.54 296.76 227.55 435.28 227.44 C 435.28 226.47 435.29 224.53 435.29 223.57 C 296.77 223.44 158.25 223.48 19.74 223.54 Z" />
<path fill="#ffffff" opacity="1.00" d=" M 34.85 33.02 C 37.13 30.14 42.18 31.34 41.90 35.54 C 40.91 35.17 39.92 34.78 38.94 34.38 C 38.11 35.65 34.96 37.86 37.81 38.77 C 38.41 37.94 39.61 36.27 40.21 35.44 C 40.56 36.06 40.90 36.70 41.24 37.33 C 40.74 38.72 40.24 40.11 39.75 41.51 C 37.06 39.55 34.08 36.71 34.85 33.02 Z" />
<path fill="#ffffff" opacity="1.00" d=" M 244.92 40.12 C 247.70 38.25 249.99 40.98 250.73 43.53 C 250.03 45.38 249.27 47.20 248.44 48.99 C 247.66 48.29 246.90 47.58 246.15 46.86 C 247.44 45.62 248.73 44.37 250.02 43.11 C 246.92 45.90 246.29 41.63 244.92 40.12 Z" />
<path fill="#ffffff" opacity="1.00" d=" M 342.13 44.69 C 343.71 44.70 345.29 44.71 346.88 44.72 C 346.91 45.17 346.96 46.06 346.99 46.51 C 345.34 46.52 343.69 46.53 342.05 46.56 C 342.07 46.09 342.11 45.15 342.13 44.69 Z" />
<path fill="#ffffff" opacity="1.00" d=" M 55.27 47.63 C 57.90 47.60 55.27 50.84 55.07 52.25 C 53.23 51.09 54.64 49.05 55.27 47.63 Z" />
<path fill="#ffffff" opacity="1.00" d=" M 261.84 57.83 C 262.56 56.62 263.27 55.34 264.52 54.60 C 264.16 56.01 263.73 57.41 263.31 58.80 C 262.95 58.56 262.21 58.07 261.84 57.83 Z" />
<path fill="#ffffff" opacity="1.00" d=" M 346.54 55.08 C 348.40 55.56 346.88 59.79 345.08 58.94 C 344.35 57.62 345.28 55.73 346.54 55.08 Z" />
<path fill="#ffffff" opacity="1.00" d=" M 367.18 55.22 C 368.69 54.01 370.01 56.80 368.70 57.76 C 367.17 59.03 365.91 56.18 367.18 55.22 Z" />
<path fill="#ffffff" opacity="1.00" d=" M 370.07 58.89 C 370.34 57.36 369.81 55.22 371.78 54.71 C 371.89 56.15 371.98 57.59 372.06 59.03 C 371.57 59.00 370.57 58.92 370.07 58.89 Z" />
<path fill="#ffffff" opacity="1.00" d=" M 44.16 56.02 C 45.57 57.45 47.51 57.99 49.41 58.43 C 48.75 60.02 46.95 60.27 45.55 60.91 C 45.14 59.26 44.72 57.62 44.16 56.02 Z" />
<path fill="#ffffff" opacity="1.00" d=" M 331.22 58.10 C 332.39 58.31 333.56 58.51 334.74 58.71 C 334.16 59.88 333.58 61.06 333.01 62.23 C 332.42 60.86 331.82 59.48 331.22 58.10 Z" />
<path fill="#ffffff" opacity="1.00" d=" M 350.90 65.70 C 350.98 63.04 351.33 60.39 352.18 57.87 C 351.86 60.68 352.02 63.58 353.81 65.93 C 353.08 65.87 351.62 65.75 350.90 65.70 Z" />
<path fill="#ffffff" opacity="1.00" d=" M 61.10 59.29 C 73.07 59.07 85.04 59.42 96.99 59.94 C 107.51 59.09 118.79 68.04 117.74 79.09 C 116.84 84.96 112.99 89.77 109.37 94.25 C 109.69 95.07 110.33 96.70 110.64 97.52 C 98.81 97.44 86.97 97.58 75.13 97.45 C 74.99 98.61 74.87 99.78 74.77 100.96 C 71.83 97.18 66.65 97.56 62.36 97.46 C 62.31 94.16 61.86 90.84 60.27 87.91 C 61.53 85.38 62.26 82.65 62.71 79.87 C 63.50 80.64 64.29 81.41 65.09 82.18 C 65.67 80.40 66.24 78.62 66.80 76.85 C 65.74 76.03 64.23 75.47 64.11 73.94 C 62.78 69.13 61.88 64.21 61.10 59.29 M 106.55 63.38 C 105.16 64.05 103.77 64.72 102.38 65.39 C 103.59 66.68 104.84 67.94 106.15 69.13 C 106.27 67.21 106.40 65.30 106.55 63.38 M 85.67 87.07 C 87.31 87.68 88.94 88.34 90.66 88.72 C 91.00 87.04 90.96 85.32 90.96 83.62 C 88.87 84.22 87.18 85.56 85.67 87.07 M 92.81 85.51 C 92.17 87.76 94.30 88.35 95.77 89.24 C 96.00 88.75 96.44 87.78 96.67 87.30 C 95.39 86.69 94.10 86.09 92.81 85.51 M 81.22 90.12 C 78.65 91.90 81.80 94.18 82.74 95.98 C 83.14 95.58 83.93 94.78 84.33 94.39 C 83.30 92.96 82.26 91.54 81.22 90.12 Z" />
<path fill="#ffffff" opacity="1.00" d=" M 359.83 62.96 C 357.35 62.77 357.86 60.15 359.12 58.83 C 359.42 60.20 359.64 61.57 359.83 62.96 Z" />
<path fill="#ffffff" opacity="1.00" d=" M 253.19 62.44 C 254.88 63.38 256.63 64.21 258.37 65.04 C 257.04 65.70 255.70 66.35 254.37 67.00 C 253.99 65.47 253.61 63.95 253.19 62.44 Z" />
<path fill="#ffffff" opacity="1.00" d=" M 271.68 69.10 C 273.56 70.40 276.91 71.16 276.83 73.94 C 274.79 72.72 272.51 71.48 271.68 69.10 Z" />
<path fill="#ffffff" opacity="1.00" d=" M 340.98 127.76 C 347.03 109.64 352.84 91.43 359.00 73.35 C 364.71 91.45 370.19 109.63 375.84 127.75 C 364.22 127.75 352.60 127.74 340.98 127.76 M 364.18 122.99 C 364.94 123.29 365.70 123.60 366.46 123.91 C 366.92 122.77 367.37 121.63 367.83 120.49 C 365.79 119.50 365.06 121.55 364.18 122.99 Z" />
<path fill="#ffffff" opacity="1.00" d=" M 43.07 83.73 C 44.68 83.73 46.29 83.72 47.89 83.71 C 47.92 84.16 47.96 85.07 47.99 85.52 C 46.33 85.52 44.68 85.52 43.03 85.52 C 43.04 85.08 43.06 84.18 43.07 83.73 Z" />
<path fill="#ffffff" opacity="1.00" d=" M 116.73 92.20 C 117.26 90.00 119.44 89.19 121.24 88.27 C 120.97 90.62 118.60 91.41 116.73 92.20 Z" />
<path fill="#ffffff" opacity="1.00" d=" M 122.36 97.56 C 122.43 95.84 121.48 93.30 123.78 92.71 C 123.89 94.16 123.99 95.62 124.07 97.08 C 123.64 97.20 122.79 97.44 122.36 97.56 Z" />
<path fill="#ffffff" opacity="1.00" d=" M 238.44 95.59 C 237.68 92.39 244.07 94.12 242.31 95.95 C 241.05 95.38 239.65 96.05 238.44 95.59 Z" />
<path fill="#ffffff" opacity="1.00" d=" M 112.27 98.85 C 114.62 98.10 113.72 102.55 111.81 102.29 C 110.18 101.75 111.17 99.43 112.27 98.85 Z" />
<path fill="#ffffff" opacity="1.00" d=" M 117.74 101.31 C 118.18 101.28 119.05 101.23 119.49 101.20 C 119.49 102.98 119.49 104.76 119.49 106.55 C 119.05 106.52 118.19 106.48 117.75 106.46 C 117.75 104.74 117.75 103.03 117.74 101.31 Z" />
<path fill="#ffffff" opacity="1.00" d=" M 28.64 103.46 C 31.39 104.17 32.59 106.93 33.81 109.20 C 31.05 108.55 29.97 105.62 28.64 103.46 Z" />
<path fill="#ffffff" opacity="1.00" d=" M 124.29 104.31 C 124.94 104.65 125.58 105.01 126.21 105.39 C 126.33 105.94 126.55 107.04 126.66 107.60 C 124.81 107.84 122.96 108.14 121.12 108.50 C 122.00 107.73 122.88 106.95 123.76 106.18 C 123.89 105.71 124.16 104.78 124.29 104.31 Z" />
<path fill="#ffffff" opacity="1.00" d=" M 87.18 107.65 C 88.15 105.25 91.90 106.12 94.05 105.39 C 93.58 108.32 89.38 107.98 87.18 107.65 Z" />
<path fill="#ffffff" opacity="1.00" d=" M 113.16 105.32 C 111.92 107.24 110.30 108.86 108.37 110.08 C 107.53 109.20 106.68 108.32 105.83 107.45 C 108.38 107.15 110.84 106.40 113.16 105.32 Z" />
<path fill="#ffffff" opacity="1.00" d=" M 100.09 110.42 C 101.84 109.71 103.59 108.97 105.35 108.27 C 104.40 109.94 103.17 111.43 101.77 112.74 C 101.20 111.97 100.65 111.20 100.09 110.42 Z" />
<path fill="#ffffff" opacity="1.00" d=" M 29.83 109.23 C 31.30 109.75 32.77 110.29 34.25 110.79 C 34.25 111.93 34.25 113.06 34.25 114.20 C 32.60 112.72 31.19 110.99 29.83 109.23 Z" />
<path fill="#ffffff" opacity="1.00" d=" M 95.57 111.58 C 96.37 111.17 99.17 110.81 98.27 112.35 C 98.23 114.27 93.72 112.25 95.57 111.58 Z" />
<path fill="#ffffff" opacity="1.00" d=" M 91.40 112.69 C 93.96 111.78 93.08 116.32 91.04 116.07 C 89.65 115.46 90.38 113.31 91.40 112.69 Z" />
<path fill="#ffffff" opacity="1.00" d=" M 58.33 117.17 C 59.52 118.30 60.67 119.48 61.81 120.67 C 62.30 120.11 63.27 119.00 63.76 118.45 C 64.27 119.60 64.76 120.76 65.26 121.93 C 64.80 121.51 63.89 120.68 63.43 120.27 C 61.33 120.99 59.23 121.68 57.12 122.34 C 56.73 121.34 56.35 120.34 55.96 119.34 C 56.75 118.62 57.54 117.89 58.33 117.17 Z" />
<path fill="#ffffff" opacity="1.00" d=" M 124.88 133.24 C 122.35 132.68 122.87 129.02 123.93 127.36 C 126.02 128.42 124.57 131.37 124.88 133.24 Z" />
<path fill="#ffffff" opacity="1.00" d=" M 27.03 137.27 C 27.96 135.84 29.59 135.19 31.01 134.36 C 30.59 135.86 30.22 137.38 30.04 138.94 C 29.29 138.52 27.78 137.69 27.03 137.27 Z" />
<path fill="#ffffff" opacity="1.00" d=" M 299.34 146.26 C 300.87 144.99 302.00 147.90 300.85 148.87 C 299.29 150.12 298.07 147.23 299.34 146.26 Z" />
<path fill="#ffffff" opacity="1.00" d=" M 190.54 160.15 C 191.80 160.55 194.91 159.37 194.19 161.62 C 193.34 161.68 191.65 161.81 190.80 161.87 C 190.78 162.36 190.76 163.33 190.75 163.82 C 189.37 163.12 187.99 162.42 186.84 161.40 C 188.09 161.60 189.34 161.82 190.59 162.07 C 190.58 161.59 190.55 160.63 190.54 160.15 Z" />
<path fill="#ffffff" opacity="1.00" d=" M 245.86 165.19 C 244.51 163.64 243.20 162.06 241.93 160.45 C 243.29 160.97 244.67 161.50 246.04 162.01 C 246.00 162.80 245.91 164.40 245.86 165.19 Z" />
<path fill="#ffffff" opacity="1.00" d=" M 265.70 170.57 C 266.97 169.49 268.31 168.50 269.76 167.69 C 269.78 169.08 269.77 170.48 269.76 171.88 C 268.40 171.45 267.04 171.01 265.70 170.57 Z" />
<path fill="#ffffff" opacity="1.00" d=" M 272.22 170.07 C 273.16 169.27 275.19 170.49 274.58 171.70 C 273.62 172.48 271.57 171.29 272.22 170.07 Z" />
</g>
<g id="#d21e1eff">
<path fill="#d21e1e" opacity="1.00" d=" M 237.98 5.25 C 239.63 5.62 241.28 6.00 242.94 6.38 C 242.96 6.92 243.00 7.99 243.02 8.53 C 241.39 8.18 239.76 7.83 238.13 7.49 C 238.09 6.93 238.02 5.81 237.98 5.25 Z" />
<path fill="#d21e1e" opacity="1.00" d=" M 212.16 7.38 C 214.12 7.21 216.08 7.03 218.05 6.85 C 219.38 7.90 220.70 8.96 222.02 10.03 C 222.01 11.41 222.00 12.80 221.99 14.19 C 220.69 14.33 219.39 14.47 218.09 14.61 C 221.03 16.85 223.79 19.33 226.13 22.21 L 222.49 21.01 C 223.46 22.39 224.44 23.75 225.43 25.11 C 221.37 24.22 217.43 22.73 214.18 20.09 C 214.80 18.26 215.47 16.44 216.22 14.66 C 214.55 13.48 212.88 12.30 211.21 11.12 C 211.52 9.88 211.84 8.63 212.16 7.38 Z" />
<path fill="#d21e1e" opacity="1.00" d=" M 255.64 8.08 C 257.18 8.02 258.71 7.97 260.26 7.93 C 261.22 9.99 260.80 12.01 259.51 13.79 C 257.78 12.21 256.34 10.34 255.64 8.08 Z" />
<path fill="#d21e1e" opacity="1.00" d=" M 240.93 13.14 C 245.25 12.23 248.18 15.82 250.40 18.94 C 250.44 19.97 250.54 22.03 250.58 23.06 C 247.18 21.87 243.83 20.25 241.32 17.61 C 240.78 16.20 241.07 14.62 240.93 13.14 Z" />
<path fill="#d21e1e" opacity="1.00" d=" M 307.29 19.35 C 309.73 18.45 308.58 21.96 308.94 23.27 C 306.69 23.19 306.72 20.99 307.29 19.35 Z" />
<path fill="#d21e1e" opacity="1.00" d=" M 230.23 20.73 C 236.77 19.36 240.90 25.71 246.93 26.74 C 248.93 26.91 250.22 28.44 251.60 29.71 C 249.88 30.32 248.15 30.93 246.45 31.57 C 256.71 35.20 267.22 39.15 275.33 46.70 C 284.69 54.85 290.90 68.14 287.78 80.55 C 285.41 81.17 283.28 82.38 281.49 84.04 C 282.65 86.13 286.45 88.68 283.55 91.00 C 284.87 93.77 287.24 95.81 289.00 98.27 C 282.38 92.78 277.12 85.86 270.62 80.25 C 267.99 77.82 264.17 79.61 261.03 79.64 C 262.42 78.97 263.80 78.30 265.19 77.61 C 264.45 76.73 263.70 75.86 262.97 74.98 C 261.50 76.80 260.24 79.14 257.89 79.92 C 255.39 80.36 252.90 79.60 250.48 79.04 C 249.95 76.29 250.55 73.63 252.44 71.53 C 252.06 70.97 251.69 70.41 251.32 69.85 C 250.52 71.20 249.72 72.54 248.92 73.88 C 247.17 68.30 242.89 63.56 237.23 61.85 C 228.81 59.22 219.46 59.21 211.05 61.93 C 209.11 52.02 206.92 42.15 205.04 32.22 C 215.51 28.89 226.60 31.59 237.30 29.88 C 234.47 27.23 231.52 24.50 230.23 20.73 M 244.92 40.12 C 246.29 41.63 246.92 45.90 250.02 43.11 C 248.73 44.37 247.44 45.62 246.15 46.86 C 246.90 47.58 247.66 48.29 248.44 48.99 C 249.27 47.20 250.03 45.38 250.73 43.53 C 249.99 40.98 247.70 38.25 244.92 40.12 M 261.84 57.83 C 262.21 58.07 262.95 58.56 263.31 58.80 C 263.73 57.41 264.16 56.01 264.52 54.60 C 263.27 55.34 262.56 56.62 261.84 57.83 M 253.19 62.44 C 253.61 63.95 253.99 65.47 254.37 67.00 C 255.70 66.35 257.04 65.70 258.37 65.04 C 256.63 64.21 254.88 63.38 253.19 62.44 M 271.68 69.10 C 272.51 71.48 274.79 72.72 276.83 73.94 C 276.91 71.16 273.56 70.40 271.68 69.10 Z" />
<path fill="#d21e1e" opacity="1.00" d=" M 331.01 22.04 C 332.68 21.99 334.35 21.93 336.02 21.85 C 336.21 24.56 337.22 27.08 338.80 29.27 C 339.53 28.57 340.26 27.87 341.00 27.17 C 346.46 29.78 352.66 29.27 358.54 29.53 C 359.64 34.23 360.00 39.17 358.76 43.89 C 360.41 43.57 362.06 43.27 363.72 42.96 C 362.00 38.67 361.39 34.08 360.65 29.55 C 367.21 29.44 373.78 29.53 380.34 29.49 C 395.51 70.47 410.91 111.37 425.95 152.40 C 419.45 150.57 412.98 152.45 406.88 154.73 C 408.72 153.27 410.52 151.76 412.20 150.11 C 400.46 150.73 389.67 156.02 378.13 157.69 C 370.08 158.82 362.05 156.90 354.00 157.01 C 350.28 157.08 346.55 157.22 342.87 157.72 C 345.69 156.63 349.56 155.02 348.45 151.26 C 343.24 153.53 338.92 157.37 333.83 159.84 C 332.73 160.57 331.52 159.78 330.37 159.70 C 328.15 164.51 324.90 169.00 319.93 171.23 C 322.45 171.24 324.94 170.79 327.42 170.34 C 324.97 176.37 323.14 182.83 319.11 188.05 C 317.85 187.72 316.63 187.00 315.30 187.13 C 314.10 187.88 313.28 189.07 312.34 190.09 C 312.17 189.10 312.00 188.11 311.81 187.13 C 304.44 186.17 296.88 187.79 289.70 185.41 C 292.05 185.29 294.43 185.06 296.61 184.10 C 294.25 182.33 291.46 182.36 288.79 183.39 C 288.39 182.38 287.98 181.37 287.57 180.37 C 290.26 179.12 292.82 177.62 295.25 175.91 C 294.00 175.28 292.71 174.63 291.36 175.31 C 290.27 171.97 288.43 168.94 287.21 165.65 C 287.45 165.05 287.93 163.85 288.17 163.25 C 288.44 163.35 288.98 163.56 289.25 163.67 C 289.32 164.61 289.46 166.49 289.52 167.44 C 290.98 167.43 292.44 167.41 293.90 167.42 C 293.29 165.39 292.52 163.41 291.57 161.52 L 289.59 162.90 C 289.33 161.84 289.13 160.77 288.98 159.69 C 290.82 158.34 292.93 157.34 294.51 155.67 C 293.60 156.03 291.77 156.76 290.86 157.13 C 293.87 153.76 293.31 148.99 294.84 144.99 C 298.83 130.81 307.39 117.45 306.55 102.26 C 307.15 102.82 308.34 103.92 308.93 104.47 C 313.32 92.87 318.06 81.41 322.84 69.97 C 321.89 69.69 320.95 69.40 320.02 69.10 C 319.22 66.57 317.97 64.22 316.46 62.05 C 317.16 57.73 318.64 53.18 315.91 49.20 C 315.24 50.33 314.64 51.51 314.10 52.71 C 313.70 52.72 312.90 52.75 312.50 52.76 C 312.49 51.65 312.48 50.53 312.48 49.42 C 313.62 49.32 314.76 49.24 315.91 49.17 L 315.52 47.92 C 315.91 48.48 316.70 49.60 317.09 50.16 C 318.86 48.18 321.02 46.67 323.78 46.57 C 322.25 45.38 320.69 44.23 319.13 43.10 C 320.33 43.31 321.53 43.53 322.74 43.75 C 323.58 40.82 324.62 37.94 325.45 35.00 C 327.31 35.01 329.17 35.02 331.04 35.03 C 328.77 37.29 326.75 39.83 324.15 41.74 C 324.03 42.66 323.95 43.59 323.91 44.53 C 325.54 46.91 324.67 49.91 322.47 51.56 C 322.25 53.66 322.00 55.78 322.17 57.89 C 323.34 57.80 324.49 57.58 325.66 57.47 C 323.98 58.58 322.36 59.79 320.81 61.08 C 320.75 63.28 321.62 65.22 323.09 66.83 C 324.55 63.81 326.51 61.06 329.00 58.80 C 328.56 58.60 327.68 58.21 327.24 58.01 C 330.77 49.50 334.01 40.87 337.27 32.25 C 336.27 31.39 335.27 30.54 334.27 29.69 C 333.56 30.86 332.87 32.03 332.18 33.20 C 332.35 30.19 332.91 27.22 333.40 24.26 C 332.62 23.49 331.83 22.76 331.01 22.04 M 342.13 44.69 C 342.11 45.15 342.07 46.09 342.05 46.56 C 343.69 46.53 345.34 46.52 346.99 46.51 C 346.96 46.06 346.91 45.17 346.88 44.72 C 345.29 44.71 343.71 44.70 342.13 44.69 M 346.54 55.08 C 345.28 55.73 344.35 57.62 345.08 58.94 C 346.88 59.79 348.40 55.56 346.54 55.08 M 367.18 55.22 C 365.91 56.18 367.17 59.03 368.70 57.76 C 370.01 56.80 368.69 54.01 367.18 55.22 M 370.07 58.89 C 370.57 58.92 371.57 59.00 372.06 59.03 C 371.98 57.59 371.89 56.15 371.78 54.71 C 369.81 55.22 370.34 57.36 370.07 58.89 M 331.22 58.10 C 331.82 59.48 332.42 60.86 333.01 62.23 C 333.58 61.06 334.16 59.88 334.74 58.71 C 333.56 58.51 332.39 58.31 331.22 58.10 M 350.90 65.70 C 351.62 65.75 353.08 65.87 353.81 65.93 C 352.02 63.58 351.86 60.68 352.18 57.87 C 351.33 60.39 350.98 63.04 350.90 65.70 M 359.83 62.96 C 359.64 61.57 359.42 60.20 359.12 58.83 C 357.86 60.15 357.35 62.77 359.83 62.96 M 340.98 127.76 C 352.60 127.74 364.22 127.75 375.84 127.75 C 370.19 109.63 364.71 91.45 359.00 73.35 C 352.84 91.43 347.03 109.64 340.98 127.76 M 299.34 146.26 C 298.07 147.23 299.29 150.12 300.85 148.87 C 302.00 147.90 300.87 144.99 299.34 146.26 Z" />
<path fill="#d21e1e" opacity="1.00" d=" M 20.00 26.75 C 50.00 26.75 80.00 26.75 110.00 26.75 C 114.04 26.83 118.10 26.92 122.10 27.51 C 139.58 30.18 154.61 44.51 158.13 61.84 C 159.98 72.45 159.34 83.84 154.66 93.68 C 150.99 101.57 144.36 107.76 136.74 111.80 C 136.15 112.19 133.89 113.38 136.04 113.75 C 145.38 118.14 152.49 126.76 155.07 136.75 C 158.26 149.95 157.34 163.74 160.44 176.95 C 161.33 181.02 162.53 185.02 163.76 189.00 C 150.00 188.89 136.23 189.21 122.47 188.84 C 118.94 176.69 119.64 163.88 117.31 151.53 C 115.55 142.94 110.92 133.78 102.13 130.74 C 93.69 127.40 84.51 131.44 75.97 128.76 C 74.30 128.39 71.90 126.87 71.37 129.55 C 68.53 129.51 65.68 129.49 62.84 129.49 C 62.15 132.08 61.78 134.75 61.78 137.44 C 57.93 134.80 54.73 139.45 51.57 141.09 C 52.30 140.07 53.04 139.05 53.79 138.04 C 52.17 135.92 50.43 133.89 48.64 131.91 C 46.31 133.68 45.05 136.31 44.32 139.07 C 43.71 137.59 43.14 136.07 43.34 134.44 C 41.84 133.68 40.22 133.22 38.53 133.18 C 37.69 134.28 36.89 135.41 35.91 136.39 C 34.22 136.51 32.52 136.38 30.83 136.36 C 30.86 137.50 30.90 138.64 30.94 139.78 L 31.95 139.53 C 31.38 141.20 29.96 143.02 31.49 144.74 L 30.93 145.11 C 28.85 145.66 26.85 146.45 24.98 147.51 C 23.72 146.06 21.84 145.69 20.06 145.33 C 19.93 105.80 20.03 66.28 20.00 26.75 M 34.85 33.02 C 34.08 36.71 37.06 39.55 39.75 41.51 C 40.24 40.11 40.74 38.72 41.24 37.33 C 40.90 36.70 40.56 36.06 40.21 35.44 C 39.61 36.27 38.41 37.94 37.81 38.77 C 34.96 37.86 38.11 35.65 38.94 34.38 C 39.92 34.78 40.91 35.17 41.90 35.54 C 42.18 31.34 37.13 30.14 34.85 33.02 M 55.27 47.63 C 54.64 49.05 53.23 51.09 55.07 52.25 C 55.27 50.84 57.90 47.60 55.27 47.63 M 44.16 56.02 C 44.72 57.62 45.14 59.26 45.55 60.91 C 46.95 60.27 48.75 60.02 49.41 58.43 C 47.51 57.99 45.57 57.45 44.16 56.02 M 61.10 59.29 C 61.88 64.21 62.78 69.13 64.11 73.94 C 64.23 75.47 65.74 76.03 66.80 76.85 C 66.24 78.62 65.67 80.40 65.09 82.18 C 64.29 81.41 63.50 80.64 62.71 79.87 C 62.26 82.65 61.53 85.38 60.27 87.91 C 61.86 90.84 62.31 94.16 62.36 97.46 C 66.65 97.56 71.83 97.18 74.77 100.96 C 74.87 99.78 74.99 98.61 75.13 97.45 C 86.97 97.58 98.81 97.44 110.64 97.52 C 110.33 96.70 109.69 95.07 109.37 94.25 C 112.99 89.77 116.84 84.96 117.74 79.09 C 118.79 68.04 107.51 59.09 96.99 59.94 C 85.04 59.42 73.07 59.07 61.10 59.29 M 43.07 83.73 C 43.06 84.18 43.04 85.08 43.03 85.52 C 44.68 85.52 46.33 85.52 47.99 85.52 C 47.96 85.07 47.92 84.16 47.89 83.71 C 46.29 83.72 44.68 83.73 43.07 83.73 M 116.73 92.20 C 118.60 91.41 120.97 90.62 121.24 88.27 C 119.44 89.19 117.26 90.00 116.73 92.20 M 122.36 97.56 C 122.79 97.44 123.64 97.20 124.07 97.08 C 123.99 95.62 123.89 94.16 123.78 92.71 C 121.48 93.30 122.43 95.84 122.36 97.56 M 112.27 98.85 C 111.17 99.43 110.18 101.75 111.81 102.29 C 113.72 102.55 114.62 98.10 112.27 98.85 M 117.74 101.31 C 117.75 103.03 117.75 104.74 117.75 106.46 C 118.19 106.48 119.05 106.52 119.49 106.55 C 119.49 104.76 119.49 102.98 119.49 101.20 C 119.05 101.23 118.18 101.28 117.74 101.31 M 28.64 103.46 C 29.97 105.62 31.05 108.55 33.81 109.20 C 32.59 106.93 31.39 104.17 28.64 103.46 M 124.29 104.31 C 124.16 104.78 123.89 105.71 123.76 106.18 C 122.88 106.95 122.00 107.73 121.12 108.50 C 122.96 108.14 124.81 107.84 126.66 107.60 C 126.55 107.04 126.33 105.94 126.21 105.39 C 125.58 105.01 124.94 104.65 124.29 104.31 M 87.18 107.65 C 89.38 107.98 93.58 108.32 94.05 105.39 C 91.90 106.12 88.15 105.25 87.18 107.65 M 113.16 105.32 C 110.84 106.40 108.38 107.15 105.83 107.45 C 106.68 108.32 107.53 109.20 108.37 110.08 C 110.30 108.86 111.92 107.24 113.16 105.32 M 100.09 110.42 C 100.65 111.20 101.20 111.97 101.77 112.74 C 103.17 111.43 104.40 109.94 105.35 108.27 C 103.59 108.97 101.84 109.71 100.09 110.42 M 29.83 109.23 C 31.19 110.99 32.60 112.72 34.25 114.20 C 34.25 113.06 34.25 111.93 34.25 110.79 C 32.77 110.29 31.30 109.75 29.83 109.23 M 95.57 111.58 C 93.72 112.25 98.23 114.27 98.27 112.35 C 99.17 110.81 96.37 111.17 95.57 111.58 M 91.40 112.69 C 90.38 113.31 89.65 115.46 91.04 116.07 C 93.08 116.32 93.96 111.78 91.40 112.69 M 58.33 117.17 C 57.54 117.89 56.75 118.62 55.96 119.34 C 56.35 120.34 56.73 121.34 57.12 122.34 C 59.23 121.68 61.33 120.99 63.43 120.27 C 63.89 120.68 64.80 121.51 65.26 121.93 C 64.76 120.76 64.27 119.60 63.76 118.45 C 63.27 119.00 62.30 120.11 61.81 120.67 C 60.67 119.48 59.52 118.30 58.33 117.17 M 124.88 133.24 C 124.57 131.37 126.02 128.42 123.93 127.36 C 122.87 129.02 122.35 132.68 124.88 133.24 M 27.03 137.27 C 27.78 137.69 29.29 138.52 30.04 138.94 C 30.22 137.38 30.59 135.86 31.01 134.36 C 29.59 135.19 27.96 135.84 27.03 137.27 Z" />
<path fill="#d21e1e" opacity="1.00" d=" M 306.08 30.18 C 307.57 29.14 309.07 28.10 310.54 27.02 C 310.78 27.67 311.25 28.98 311.48 29.63 C 312.29 29.45 314.82 29.01 314.29 30.51 C 313.56 31.66 312.73 32.73 311.94 33.82 C 311.49 33.58 310.60 33.09 310.15 32.85 C 310.53 32.23 311.28 31.00 311.66 30.38 C 309.79 30.32 307.94 30.27 306.08 30.18 Z" />
<path fill="#d21e1e" opacity="1.00" d=" M 329.39 28.83 C 331.75 29.76 330.36 31.82 329.69 33.51 C 327.28 32.49 328.52 30.47 329.39 28.83 Z" />
<path fill="#d21e1e" opacity="1.00" d=" M 176.84 42.02 C 182.05 36.16 189.71 33.40 196.57 29.99 C 199.34 39.01 202.61 47.89 204.95 57.03 C 205.97 59.59 204.22 61.92 203.06 64.05 C 201.49 66.80 199.91 69.66 197.26 71.53 C 196.94 69.84 195.94 68.55 194.47 67.70 C 193.70 63.84 196.65 61.15 198.45 58.14 L 197.79 57.08 C 195.99 57.86 194.39 59.01 192.71 60.01 C 193.56 58.31 194.48 56.66 195.41 55.00 C 194.52 54.81 192.74 54.43 191.85 54.23 C 193.06 53.02 194.23 51.77 195.26 50.40 C 193.49 50.29 191.72 50.20 189.96 50.12 C 191.11 49.08 192.27 48.05 193.43 47.02 C 192.09 45.35 190.74 43.69 189.39 42.03 C 188.13 44.28 186.81 46.51 185.24 48.56 C 185.16 47.79 185.01 46.24 184.94 45.47 C 181.66 46.49 178.23 46.66 174.83 46.97 C 175.33 49.48 175.57 52.03 175.85 54.57 C 177.33 52.12 178.93 49.73 181.03 47.76 C 180.36 52.96 179.34 58.12 178.25 63.24 C 178.03 65.54 175.52 65.98 173.79 66.73 C 174.48 66.92 175.87 67.29 176.56 67.48 C 175.96 71.31 175.72 75.19 175.50 79.06 C 175.15 85.51 173.60 91.79 172.73 98.17 C 169.16 94.32 165.30 90.46 163.73 85.29 C 159.59 73.99 162.48 61.69 166.81 50.91 C 168.30 47.72 170.18 43.84 173.95 42.99 C 177.42 44.28 181.54 41.61 184.23 44.94 C 183.27 42.98 182.41 40.97 181.69 38.92 C 180.11 40.02 178.52 41.09 176.84 42.02 Z" />
<path fill="#d21e1e" opacity="1.00" d=" M 319.02 37.26 C 319.72 35.07 319.24 31.16 322.61 31.50 C 321.79 33.64 322.25 37.48 319.02 37.26 Z" />
<path fill="#d21e1e" opacity="1.00" d=" M 305.80 41.55 C 308.78 41.50 309.15 45.12 310.28 47.16 C 307.04 47.75 307.02 43.55 305.80 41.55 Z" />
<path fill="#d21e1e" opacity="1.00" d=" M 106.55 63.38 C 106.40 65.30 106.27 67.21 106.15 69.13 C 104.84 67.94 103.59 66.68 102.38 65.39 C 103.77 64.72 105.16 64.05 106.55 63.38 Z" />
<path fill="#d21e1e" opacity="1.00" d=" M 188.55 68.04 C 193.34 72.96 195.08 80.28 200.96 84.27 C 202.84 81.18 199.27 79.10 197.67 76.92 C 198.57 77.06 200.38 77.35 201.29 77.49 C 200.09 75.57 199.89 73.34 199.90 71.13 C 202.27 73.41 204.60 75.74 207.13 77.86 C 208.43 79.09 210.15 80.16 210.55 82.04 C 213.24 91.15 215.36 100.46 218.71 109.37 C 219.58 106.65 220.13 103.76 219.54 100.91 C 218.51 94.90 216.76 89.04 215.86 83.00 C 226.14 87.04 236.32 91.67 247.21 93.82 C 254.28 97.30 262.08 99.11 268.91 103.14 C 277.60 107.80 285.01 115.42 287.96 124.98 C 291.57 136.92 290.34 150.40 284.18 161.30 C 275.79 175.85 260.10 186.37 243.10 186.91 C 239.15 187.82 236.38 184.31 232.92 183.21 C 217.74 182.06 201.73 183.67 187.42 177.45 C 180.43 173.82 173.28 169.51 168.93 162.72 C 170.03 162.76 172.25 162.84 173.35 162.88 C 172.45 162.15 171.55 161.42 170.65 160.68 C 171.79 158.18 174.00 156.51 176.08 154.82 C 179.63 154.28 182.39 156.19 184.45 158.88 C 185.28 158.48 186.12 158.09 186.96 157.71 C 182.86 154.00 178.45 150.64 174.24 147.05 C 175.05 144.81 175.86 142.56 176.32 140.21 C 175.13 140.96 173.95 141.73 172.78 142.52 C 171.43 140.94 170.02 139.41 168.41 138.10 C 169.36 140.89 170.96 143.38 172.57 145.83 C 172.09 147.13 171.62 148.44 171.14 149.75 C 169.75 149.44 168.36 149.13 166.98 148.82 C 166.43 150.69 165.88 152.55 165.31 154.41 C 166.06 155.27 166.81 156.13 167.57 157.00 C 168.42 156.22 169.28 155.45 170.15 154.68 C 170.00 156.78 169.64 158.86 169.04 160.87 C 164.25 157.47 161.70 151.94 159.27 146.78 C 156.64 141.47 157.67 135.44 157.51 129.75 C 164.11 129.75 170.72 129.75 177.32 129.75 C 177.49 131.91 177.83 134.04 178.41 136.13 C 179.58 135.42 180.74 134.69 181.89 133.94 C 181.80 133.24 181.62 131.85 181.53 131.16 C 180.76 131.30 179.22 131.60 178.46 131.74 C 180.31 128.73 184.41 129.82 187.39 129.42 C 188.29 128.61 189.19 127.81 190.09 127.01 C 189.39 125.67 188.69 124.34 188.02 122.99 C 190.64 125.62 193.22 128.34 196.55 130.09 C 196.66 133.41 197.76 137.16 195.56 140.05 C 197.55 141.52 199.64 142.91 201.18 144.89 C 204.85 149.27 210.64 150.79 215.87 152.43 C 220.29 153.80 225.03 154.20 229.53 152.97 C 229.52 153.80 229.50 155.46 229.48 156.29 C 235.23 158.25 241.29 155.41 245.65 151.70 C 249.47 148.54 251.70 142.99 249.79 138.20 C 248.17 134.08 244.39 131.36 240.68 129.24 C 235.52 126.51 229.87 124.92 224.43 122.87 C 223.11 119.43 222.01 115.80 219.58 112.95 C 219.30 115.06 219.54 117.18 219.83 119.27 C 206.44 115.61 192.66 112.36 180.57 105.27 C 183.73 92.97 189.16 81.01 188.55 68.04 M 238.44 95.59 C 239.65 96.05 241.05 95.38 242.31 95.95 C 244.07 94.12 237.68 92.39 238.44 95.59 M 190.54 160.15 C 190.55 160.63 190.58 161.59 190.59 162.07 C 189.34 161.82 188.09 161.60 186.84 161.40 C 187.99 162.42 189.37 163.12 190.75 163.82 C 190.76 163.33 190.78 162.36 190.80 161.87 C 191.65 161.81 193.34 161.68 194.19 161.62 C 194.91 159.37 191.80 160.55 190.54 160.15 M 245.86 165.19 C 245.91 164.40 246.00 162.80 246.04 162.01 C 244.67 161.50 243.29 160.97 241.93 160.45 C 243.20 162.06 244.51 163.64 245.86 165.19 M 265.70 170.57 C 267.04 171.01 268.40 171.45 269.76 171.88 C 269.77 170.48 269.78 169.08 269.76 167.69 C 268.31 168.50 266.97 169.49 265.70 170.57 M 272.22 170.07 C 271.57 171.29 273.62 172.48 274.58 171.70 C 275.19 170.49 273.16 169.27 272.22 170.07 Z" />
<path fill="#d21e1e" opacity="1.00" d=" M 85.67 87.07 C 87.18 85.56 88.87 84.22 90.96 83.62 C 90.96 85.32 91.00 87.04 90.66 88.72 C 88.94 88.34 87.31 87.68 85.67 87.07 Z" />
<path fill="#d21e1e" opacity="1.00" d=" M 92.81 85.51 C 94.10 86.09 95.39 86.69 96.67 87.30 C 96.44 87.78 96.00 88.75 95.77 89.24 C 94.30 88.35 92.17 87.76 92.81 85.51 Z" />
<path fill="#d21e1e" opacity="1.00" d=" M 81.22 90.12 C 82.26 91.54 83.30 92.96 84.33 94.39 C 83.93 94.78 83.14 95.58 82.74 95.98 C 81.80 94.18 78.65 91.90 81.22 90.12 Z" />
<path fill="#d21e1e" opacity="1.00" d=" M 411.94 96.76 C 414.98 96.27 414.15 99.22 414.32 101.13 C 413.78 101.22 412.70 101.39 412.16 101.47 C 412.07 99.90 412.00 98.33 411.94 96.76 Z" />
<path fill="#d21e1e" opacity="1.00" d=" M 272.10 101.56 C 273.71 101.17 275.34 100.77 276.96 100.37 C 276.96 100.91 276.95 102.00 276.95 102.55 C 275.29 102.95 273.63 103.35 271.98 103.75 C 272.01 103.21 272.07 102.11 272.10 101.56 Z" />
<path fill="#d21e1e" opacity="1.00" d=" M 289.00 105.77 C 289.85 104.56 290.72 103.35 292.05 102.63 C 291.74 104.00 291.37 105.37 290.97 106.72 C 290.48 106.48 289.49 106.00 289.00 105.77 Z" />
<path fill="#d21e1e" opacity="1.00" d=" M 364.18 122.99 C 365.06 121.55 365.79 119.50 367.83 120.49 C 367.37 121.63 366.92 122.77 366.46 123.91 C 365.70 123.60 364.94 123.29 364.18 122.99 Z" />
<path fill="#d21e1e" opacity="1.00" d=" M 192.82 122.59 C 196.38 124.88 199.24 128.23 203.17 129.92 C 205.50 130.19 207.87 130.04 210.20 130.43 C 206.55 131.26 202.73 130.32 199.14 131.62 C 197.69 128.19 195.11 125.47 192.82 122.59 Z" />
<path fill="#d21e1e" opacity="1.00" d=" M 215.52 131.32 C 215.13 128.29 218.17 129.03 220.21 128.92 C 220.76 132.14 217.46 131.08 215.52 131.32 Z" />
<path fill="#d21e1e" opacity="1.00" d=" M 220.80 129.02 C 221.66 129.02 223.39 129.02 224.25 129.02 C 225.05 132.10 219.91 132.14 220.80 129.02 Z" />
<path fill="#d21e1e" opacity="1.00" d=" M 229.27 129.15 C 230.41 129.12 231.55 129.10 232.69 129.09 C 232.62 129.63 232.47 130.71 232.40 131.26 C 231.47 131.26 230.54 131.26 229.61 131.26 C 229.53 130.73 229.36 129.67 229.27 129.15 Z" />
<path fill="#d21e1e" opacity="1.00" d=" M 235.00 129.00 C 235.81 129.00 237.43 129.02 238.23 129.02 C 238.55 131.35 236.72 131.38 235.00 131.37 C 235.00 130.78 235.00 129.59 235.00 129.00 Z" />
<path fill="#d21e1e" opacity="1.00" d=" M 60.48 139.14 C 61.00 139.10 62.03 139.03 62.55 139.00 C 62.11 140.51 61.66 142.02 61.21 143.53 C 60.54 143.32 59.87 143.12 59.20 142.93 C 59.63 141.66 60.05 140.40 60.48 139.14 Z" />
<path fill="#d21e1e" opacity="1.00" d=" M 34.34 151.16 C 36.19 148.84 37.96 146.44 39.43 143.85 C 39.33 145.53 39.51 147.20 39.81 148.85 C 40.54 148.59 41.98 148.07 42.70 147.81 C 42.20 149.86 40.86 151.50 39.46 153.02 C 41.26 153.60 43.14 153.81 45.02 153.90 C 43.51 155.21 42.02 156.53 40.59 157.93 C 42.02 158.16 43.46 158.37 44.90 158.56 C 43.52 160.07 42.20 161.67 41.45 163.60 C 43.79 163.19 46.00 162.32 48.22 161.50 C 48.24 164.51 48.24 167.52 48.31 170.53 C 46.90 169.87 45.47 169.25 44.03 168.66 C 44.03 169.47 44.03 171.08 44.04 171.89 C 45.62 172.84 46.82 174.22 47.36 176.01 C 48.54 174.97 49.65 173.81 51.00 172.99 C 52.93 172.74 54.42 174.36 56.13 174.96 C 58.51 174.77 60.33 172.95 62.37 171.90 C 61.33 174.11 59.63 176.31 57.02 176.59 C 54.98 176.05 53.07 175.15 51.05 174.56 C 50.19 176.17 49.27 178.03 49.96 179.89 C 50.81 181.71 52.44 182.99 53.79 184.44 C 56.69 182.71 59.41 180.72 62.00 178.56 C 62.00 181.99 62.00 185.43 62.00 188.87 C 57.98 189.11 54.04 190.29 50.00 190.21 C 48.08 188.76 47.13 186.33 45.33 184.70 C 41.95 181.57 41.98 176.39 38.77 173.18 C 35.47 189.48 29.85 205.20 25.35 221.20 C 22.25 218.68 18.03 216.37 17.46 212.02 C 17.73 206.04 22.17 201.06 22.01 195.01 C 22.01 188.70 22.01 182.39 21.97 176.08 C 19.65 176.50 17.33 177.00 15.05 177.64 C 17.48 175.53 19.54 173.05 21.45 170.47 C 23.42 169.64 25.65 168.75 26.51 166.61 C 28.76 161.76 28.16 156.21 28.69 151.02 C 26.58 152.46 25.09 154.54 24.39 156.99 C 23.99 154.29 23.17 151.69 22.18 149.16 C 24.24 149.85 26.64 151.34 28.66 149.71 C 30.09 149.00 31.02 147.12 32.76 147.20 C 33.35 148.49 33.82 149.84 34.34 151.16 Z" />
<path fill="#d21e1e" opacity="1.00" d=" M 175.34 150.29 C 176.34 151.50 177.32 152.73 178.22 154.03 C 176.42 154.08 175.18 152.80 173.89 151.78 C 174.25 151.40 174.98 150.66 175.34 150.29 Z" />
<path fill="#d21e1e" opacity="1.00" d=" M 399.56 155.17 C 400.69 154.35 404.00 151.80 403.95 154.82 C 402.61 155.74 401.01 156.02 399.56 155.17 Z" />
<path fill="#d21e1e" opacity="1.00" d=" M 57.26 154.20 C 57.76 154.48 58.74 155.05 59.23 155.34 C 58.01 157.21 56.74 159.04 55.49 160.89 C 54.76 160.54 54.03 160.20 53.30 159.85 C 54.61 157.96 55.95 156.09 57.26 154.20 Z" />
<path fill="#d21e1e" opacity="1.00" d=" M 419.01 154.56 C 420.98 154.83 422.95 155.12 424.92 155.41 C 424.84 155.90 424.67 156.88 424.58 157.37 C 422.44 156.81 418.33 157.94 419.01 154.56 Z" />
<path fill="#d21e1e" opacity="1.00" d=" M 387.89 156.87 C 389.51 156.93 391.13 156.99 392.75 157.04 C 391.34 158.06 389.92 159.07 388.54 160.13 C 393.33 160.25 398.13 160.30 402.93 160.61 C 400.73 162.51 398.59 164.77 395.68 165.51 C 393.22 165.95 390.70 165.73 388.22 165.75 C 388.25 164.06 388.27 162.37 388.28 160.68 C 387.02 159.64 387.57 158.19 387.89 156.87 Z" />
<path fill="#d21e1e" opacity="1.00" d=" M 413.22 165.19 C 415.28 163.49 417.44 161.74 420.06 161.02 C 422.38 161.08 424.30 162.63 426.24 163.72 C 426.17 163.02 426.01 161.63 425.94 160.93 C 427.63 161.38 429.30 161.91 430.97 162.47 C 429.82 163.30 428.64 164.08 427.48 164.89 C 428.15 165.13 429.50 165.62 430.17 165.86 C 430.60 172.18 429.81 178.53 428.42 184.70 C 431.97 184.75 434.32 181.90 436.80 179.81 C 437.30 182.11 437.79 184.42 438.16 186.75 C 424.20 186.78 410.23 186.69 396.27 186.80 C 395.85 184.08 394.95 181.48 393.89 178.95 C 398.93 179.16 403.70 180.72 407.67 183.88 C 407.02 181.27 405.75 178.87 404.08 176.78 C 402.01 176.77 399.95 176.72 397.90 176.52 C 403.84 174.67 409.13 180.23 414.96 177.95 C 414.77 178.97 414.41 181.00 414.23 182.02 C 418.32 179.84 422.40 177.40 427.07 176.68 C 424.25 172.92 423.28 168.41 423.54 163.78 C 421.49 166.44 419.38 169.06 417.50 171.84 C 418.20 174.29 420.11 171.42 421.17 170.89 C 420.86 172.10 420.56 173.30 420.27 174.51 C 413.85 174.56 407.40 174.35 401.06 173.37 C 401.83 168.72 407.90 167.75 411.08 170.68 C 411.68 170.16 412.87 169.13 413.46 168.61 C 411.99 167.39 410.52 166.16 409.05 164.95 C 410.09 165.01 412.17 165.13 413.22 165.19 Z" />
<path fill="#d21e1e" opacity="1.00" d=" M 403.89 163.34 C 400.91 168.05 397.72 172.61 394.47 177.14 C 392.80 174.60 391.36 171.91 390.36 169.04 C 393.21 169.00 396.10 169.16 398.94 168.68 C 398.58 167.80 398.19 166.93 397.78 166.08 C 399.83 165.20 401.86 164.28 403.89 163.34 Z" />
<path fill="#d21e1e" opacity="1.00" d=" M 57.66 165.71 C 58.71 165.28 59.76 164.84 60.81 164.40 C 60.82 164.96 60.86 166.06 60.88 166.61 C 59.67 166.98 58.47 167.35 57.27 167.72 C 57.37 167.22 57.56 166.21 57.66 165.71 Z" />
<path fill="#d21e1e" opacity="1.00" d=" M 287.36 174.17 C 286.62 172.34 283.47 170.13 286.11 168.48 C 287.23 169.77 288.21 171.16 289.23 172.54 C 288.60 173.08 287.98 173.62 287.36 174.17 Z" />
<path fill="#d21e1e" opacity="1.00" d=" M 431.40 180.24 C 431.88 177.81 432.42 175.40 432.96 172.99 C 434.11 174.56 435.24 176.13 436.33 177.73 C 434.81 178.79 433.20 179.74 431.40 180.24 Z" />
<path fill="#d21e1e" opacity="1.00" d=" M 103.71 174.39 C 104.27 174.30 105.37 174.13 105.92 174.05 C 105.91 175.27 105.89 176.49 105.86 177.72 C 105.34 177.64 104.28 177.48 103.76 177.40 C 103.74 176.39 103.73 175.39 103.71 174.39 Z" />
<path fill="#d21e1e" opacity="1.00" d=" M 284.44 174.49 C 285.50 174.97 286.56 175.45 287.64 175.91 C 286.88 176.86 286.15 177.82 285.41 178.77 C 287.10 180.15 285.73 181.55 285.05 182.77 L 284.67 181.36 C 283.74 181.84 281.87 182.81 280.94 183.29 C 282.89 180.71 284.17 177.72 284.44 174.49 Z" />
<path fill="#d21e1e" opacity="1.00" d=" M 341.19 173.79 C 342.66 174.64 344.38 175.41 344.20 177.47 C 342.90 176.95 341.63 176.41 340.35 175.85 C 340.56 175.34 340.98 174.31 341.19 173.79 Z" />
<path fill="#d21e1e" opacity="1.00" d=" M 109.50 176.56 C 110.04 176.51 111.12 176.42 111.66 176.37 C 111.69 177.51 111.73 178.65 111.77 179.79 C 111.20 179.77 110.05 179.73 109.48 179.71 C 109.49 178.66 109.49 177.61 109.50 176.56 Z" />
<path fill="#d21e1e" opacity="1.00" d=" M 38.64 177.49 C 38.94 177.40 39.55 177.23 39.85 177.14 C 40.89 180.61 38.83 184.25 38.51 187.78 C 37.98 187.75 36.92 187.69 36.39 187.66 C 37.22 184.29 37.81 180.86 38.64 177.49 Z" />
<path fill="#d21e1e" opacity="1.00" d=" M 89.83 177.15 C 91.87 178.14 93.76 179.40 95.40 180.98 C 93.92 181.03 92.43 181.01 90.96 180.92 C 90.05 179.94 90.24 178.36 89.83 177.15 Z" />
<path fill="#d21e1e" opacity="1.00" d=" M 279.56 186.60 C 280.44 182.77 284.68 182.84 287.68 184.08 C 287.98 184.90 288.29 185.71 288.61 186.53 C 285.60 186.17 282.57 186.42 279.56 186.60 Z" />
<path fill="#d21e1e" opacity="1.00" d=" M 356.51 190.97 C 357.44 191.92 358.34 192.89 359.27 193.84 C 358.28 194.43 357.30 195.04 356.33 195.65 C 356.40 194.09 356.46 192.53 356.51 190.97 Z" />
<path fill="#d21e1e" opacity="1.00" d=" M 395.48 191.28 C 396.05 191.26 397.18 191.23 397.75 191.22 C 397.74 192.32 397.73 193.43 397.73 194.54 C 397.17 194.53 396.07 194.50 395.51 194.49 C 395.50 193.42 395.48 192.35 395.48 191.28 Z" />
<path fill="#d21e1e" opacity="1.00" d=" M 19.74 223.54 C 158.25 223.48 296.77 223.44 435.29 223.57 C 435.29 224.53 435.28 226.47 435.28 227.44 C 296.76 227.55 158.23 227.54 19.71 227.44 C 19.72 226.47 19.73 224.52 19.74 223.54 Z" />
</g>
</svg>
