<svg xmlns="http://www.w3.org/2000/svg" xmlns:xlink="http://www.w3.org/1999/xlink" id="图层_1" width="800" height="600" x="0" style="enable-background:new 0 0 800 600" y="0" version="1.1" viewBox="0 0 800 600" xml:space="preserve"><path style="fill:#dcf6ff" d="M64.322,531.466h673.094c9.068,0,16.416-7.351,16.416-16.417H47.904	C47.904,524.115,55.255,531.466,64.322,531.466z"/><path style="fill:#89e1ff" d="M39.696,515.049h722.345c13.599,0,24.626-11.024,24.626-24.625H15.071	C15.071,504.024,26.096,515.049,39.696,515.049z"/><path style="fill:#dcf6ff" d="M663.539,127.61H401.354H138.199H56.598v73.215c-0.313,2.915-0.484,5.871-0.484,8.869v103.426	v103.426v82.085h0.484h81.601h263.155h262.186h82.086v-82.085V313.121V209.695C745.625,164.359,708.874,127.61,663.539,127.61z"/><g id="云"><line style="fill:none;stroke:#dcf6ff;stroke-width:18;stroke-linecap:round;stroke-linejoin:round;stroke-miterlimit:10" x1="298.604" x2="360.27" y1="84.175" y2="84.175"/><line style="fill:none;stroke:#b8ecfc;stroke-width:18;stroke-linecap:round;stroke-linejoin:round;stroke-miterlimit:10" x1="339.216" x2="586.608" y1="104.491" y2="104.491"/><line style="fill:none;stroke:#b8ecfc;stroke-width:18;stroke-linecap:round;stroke-linejoin:round;stroke-miterlimit:10" x1="441.911" x2="536.624" y1="168.794" y2="168.794"/><line style="fill:none;stroke:#b8ecfc;stroke-width:18;stroke-linecap:round;stroke-linejoin:round;stroke-miterlimit:10" x1="405.055" x2="542.876" y1="284.859" y2="284.859"/><line style="fill:none;stroke:#b8ecfc;stroke-width:18;stroke-linecap:round;stroke-linejoin:round;stroke-miterlimit:10" x1="561.251" x2="692.417" y1="134.728" y2="134.728"/><line style="fill:none;stroke:#b8ecfc;stroke-width:18;stroke-linecap:round;stroke-linejoin:round;stroke-miterlimit:10" x1="536.624" x2="725.925" y1="233.98" y2="233.98"/><line style="fill:none;stroke:#b8ecfc;stroke-width:18;stroke-linecap:round;stroke-linejoin:round;stroke-miterlimit:10" x1="218.622" x2="378.776" y1="215.908" y2="215.908"/><line style="fill:none;stroke:#b8ecfc;stroke-width:18;stroke-linecap:round;stroke-linejoin:round;stroke-miterlimit:10" x1="60.628" x2="326.974" y1="138.763" y2="138.763"/><line style="fill:none;stroke:#b8ecfc;stroke-width:18;stroke-linecap:round;stroke-linejoin:round;stroke-miterlimit:10" x1="138.442" x2="239.393" y1="99.565" y2="99.565"/></g><g id="地面"><g><rect style="fill:#cdb7aa;stroke:#cdb7aa;stroke-miterlimit:10" width="771.596" height="65.668" x="15.071" y="425.633"/><rect style="fill:#bfa18e" width="771.597" height="24.626" x="15.07" y="433.842"/><line style="fill:#5f4a57;stroke:#5f4a57;stroke-width:10;stroke-linecap:round;stroke-linejoin:round;stroke-miterlimit:10" x1="15.071" x2="786.667" y1="425.633" y2="425.633"/><line style="fill:#5f4a57;stroke:#5f4a57;stroke-width:10;stroke-linecap:round;stroke-linejoin:round;stroke-miterlimit:10" x1="15.071" x2="786.667" y1="491.301" y2="491.301"/></g><g><line style="fill:none;stroke:#5f4a57;stroke-width:10;stroke-linecap:round;stroke-linejoin:round;stroke-miterlimit:10" x1="75.814" x2="75.814" y1="425.633" y2="491.301"/><line style="fill:none;stroke:#5f4a57;stroke-width:10;stroke-linecap:round;stroke-linejoin:round;stroke-miterlimit:10" x1="129.99" x2="129.99" y1="425.633" y2="491.301"/><line style="fill:none;stroke:#5f4a57;stroke-width:10;stroke-linecap:round;stroke-linejoin:round;stroke-miterlimit:10" x1="184.166" x2="184.166" y1="425.633" y2="491.301"/><line style="fill:none;stroke:#5f4a57;stroke-width:10;stroke-linecap:round;stroke-linejoin:round;stroke-miterlimit:10" x1="238.342" x2="238.342" y1="425.633" y2="491.301"/><line style="fill:none;stroke:#5f4a57;stroke-width:10;stroke-linecap:round;stroke-linejoin:round;stroke-miterlimit:10" x1="292.518" x2="292.518" y1="425.633" y2="491.301"/><line style="fill:none;stroke:#5f4a57;stroke-width:10;stroke-linecap:round;stroke-linejoin:round;stroke-miterlimit:10" x1="346.693" x2="346.693" y1="425.633" y2="491.301"/><line style="fill:none;stroke:#5f4a57;stroke-width:10;stroke-linecap:round;stroke-linejoin:round;stroke-miterlimit:10" x1="400.87" x2="400.87" y1="425.633" y2="491.301"/><line style="fill:none;stroke:#5f4a57;stroke-width:10;stroke-linecap:round;stroke-linejoin:round;stroke-miterlimit:10" x1="455.045" x2="455.045" y1="425.633" y2="491.301"/><line style="fill:none;stroke:#5f4a57;stroke-width:10;stroke-linecap:round;stroke-linejoin:round;stroke-miterlimit:10" x1="509.221" x2="509.221" y1="425.633" y2="491.301"/><line style="fill:none;stroke:#5f4a57;stroke-width:10;stroke-linecap:round;stroke-linejoin:round;stroke-miterlimit:10" x1="563.397" x2="563.397" y1="425.633" y2="491.301"/><line style="fill:none;stroke:#5f4a57;stroke-width:10;stroke-linecap:round;stroke-linejoin:round;stroke-miterlimit:10" x1="617.572" x2="617.572" y1="425.633" y2="491.301"/><line style="fill:none;stroke:#5f4a57;stroke-width:10;stroke-linecap:round;stroke-linejoin:round;stroke-miterlimit:10" x1="671.748" x2="671.748" y1="425.633" y2="491.301"/><line style="fill:none;stroke:#5f4a57;stroke-width:10;stroke-linecap:round;stroke-linejoin:round;stroke-miterlimit:10" x1="725.925" x2="725.925" y1="425.633" y2="491.301"/></g></g><g id="建筑1"><g id="背景"><path style="fill:#ff6873" d="M60.628,79.662c-7.253,0-13.133,5.88-13.133,13.134v26.267h26.267V92.795 C73.762,85.542,67.882,79.662,60.628,79.662z"/><rect style="fill:#ff878b" width="26.267" height="39.4" x="47.495" y="119.063"/><rect style="fill:#ff6873" width="26.267" height="39.401" x="47.495" y="158.463"/><rect style="fill:#ff878b" width="26.267" height="62.384" x="47.495" y="197.864"/><polyline style="fill:#ff6873" points="10.961 424.415 45.437 424.415 102.896 424.415 102.896 260.248 45.437 260.248 45.437 355.464 10.961 355.464"/></g><rect id="高光" width="39.4" height="164.17" x="62.478" y="260.245" style="fill:#ff878b"/><g id="勾线"><path style="fill:none;stroke:#5f4a57;stroke-width:10;stroke-linecap:round;stroke-linejoin:round;stroke-miterlimit:10" d="M60.628,79.662c-7.253,0-13.133,5.88-13.133,13.134v26.267h26.267V92.795C73.762,85.542,67.882,79.662,60.628,79.662z"/><rect style="fill:none;stroke:#5f4a57;stroke-width:10;stroke-linecap:round;stroke-linejoin:round;stroke-miterlimit:10" width="26.267" height="39.4" x="47.495" y="119.063"/><rect style="fill:none;stroke:#5f4a57;stroke-width:10;stroke-linecap:round;stroke-linejoin:round;stroke-miterlimit:10" width="26.267" height="39.401" x="47.495" y="158.463"/><rect style="fill:none;stroke:#5f4a57;stroke-width:10;stroke-linecap:round;stroke-linejoin:round;stroke-miterlimit:10" width="26.267" height="62.384" x="47.495" y="197.864"/><polyline style="fill:none;stroke:#5f4a57;stroke-width:10;stroke-linecap:round;stroke-linejoin:round;stroke-miterlimit:10" points="10.961 424.415 45.437 424.415 102.896 424.415 102.896 260.248 45.437 260.248 45.437 355.464 10.961 355.464"/><g id="细节"><line style="fill:none;stroke:#5f4a57;stroke-width:10;stroke-linecap:round;stroke-linejoin:round;stroke-miterlimit:10" x1="70.686" x2="70.686" y1="424.419" y2="382.956"/><line style="fill:none;stroke:#5f4a57;stroke-width:10;stroke-linecap:round;stroke-linejoin:round;stroke-miterlimit:10" x1="38.947" x2="38.947" y1="377.353" y2="392.807"/><circle style="fill:#5f4a57" cx="70.686" cy="289.379" r="8.208"/></g></g></g><g id="建筑2"><g id="背景_1_"><rect style="fill:#ffbe80" width="131.335" height="26.268" x="118.479" y="201.145"/><rect style="fill:#ffbe80" width="164.169" height="32.833" x="102.062" y="227.413"/><path style="fill:#ffbe80" d="M102.062,260.246v164.169h52.534V316.064c0-10.88,8.821-19.701,19.7-19.701h19.701 c10.879,0,19.7,8.821,19.7,19.701v108.351h52.534V260.246H102.062z"/></g><g id="高光_1_"><rect style="fill:#fb9c6e" width="61.563" height="39.401" x="122.583" y="196.208"/><rect style="fill:#fb9c6e" width="82.084" height="32.833" x="102.062" y="235.608"/><rect style="fill:#fb9c6e" width="27.909" height="164.168" x="102.062" y="268.442"/><rect style="fill:#fdd5ab" width="19.7" height="39.401" x="235.039" y="196.208"/><rect style="fill:#fdd5ab" width="29.55" height="197.002" x="235.039" y="235.608"/></g><g id="勾线_1_"><rect style="fill:none;stroke:#5f4a57;stroke-width:10;stroke-linecap:round;stroke-linejoin:round;stroke-miterlimit:10" width="131.335" height="26.268" x="118.479" y="201.145"/><rect style="fill:none;stroke:#5f4a57;stroke-width:10;stroke-linecap:round;stroke-linejoin:round;stroke-miterlimit:10" width="164.169" height="32.833" x="102.062" y="227.413"/><path style="fill:none;stroke:#5f4a57;stroke-width:10;stroke-linecap:round;stroke-linejoin:round;stroke-miterlimit:10" d="M102.062,260.246v164.169h52.534V316.064c0-10.88,8.821-19.701,19.7-19.701h19.701c10.879,0,19.7,8.821,19.7,19.701v108.351 h52.534V260.246H102.062z"/><line style="fill:#ffbe80;stroke:#5f4a57;stroke-width:10;stroke-linecap:round;stroke-linejoin:round;stroke-miterlimit:10" x1="96.329" x2="165.28" y1="355.464" y2="355.464"/><line style="fill:#ffbe80;stroke:#5f4a57;stroke-width:10;stroke-linecap:round;stroke-linejoin:round;stroke-miterlimit:10" x1="96.329" x2="165.28" y1="319.347" y2="319.347"/><line style="fill:#ffbe80;stroke:#5f4a57;stroke-width:10;stroke-linecap:round;stroke-linejoin:round;stroke-miterlimit:10" x1="204.68" x2="273.632" y1="355.464" y2="355.464"/><line style="fill:#ffbe80;stroke:#5f4a57;stroke-width:10;stroke-linecap:round;stroke-linejoin:round;stroke-miterlimit:10" x1="204.68" x2="273.632" y1="319.347" y2="319.347"/><line style="fill:none;stroke:#5f4a57;stroke-width:10;stroke-linecap:round;stroke-linejoin:round;stroke-miterlimit:10" x1="149.671" x2="218.622" y1="188.012" y2="188.012"/><g id="细节_1_"><circle style="fill:#5f4a57" cx="130.804" cy="289.379" r="8.208"/><circle style="fill:#5f4a57" cx="238.322" cy="289.379" r="8.208"/></g></g></g><g id="建筑3"><g id="背景_2_"><rect style="fill:#e1584e" width="55.817" height="91.934" x="299.065" y="227.413"/><rect style="fill:#7cc9f0" width="174.019" height="105.068" x="266.231" y="319.347"/><path style="fill:#ffa263" d="M354.796,227.413c0.052-1.627,0.086-3.266,0.086-4.925c0-36.268-27.908-65.667-27.908-65.667 s-27.909,29.399-27.909,65.667c0,1.66,0.036,3.298,0.086,4.925H354.796z"/></g><g id="高光_2_"><path style="fill:#fdb967" d="M326.974,227.413h27.822c0.052-1.627,0.086-3.266,0.086-4.925 c0-36.268-27.908-65.667-27.908-65.667V227.413z"/><rect style="fill:#ed6e65" width="27.908" height="91.934" x="326.974" y="227.413"/><rect style="fill:#a5d9f4" width="41.042" height="105.068" x="400.87" y="319.347"/><rect style="fill:#51b2e8" width="60.743" height="105.068" x="268.694" y="319.347"/></g><g id="勾线_2_"><rect style="fill:none;stroke:#5f4a57;stroke-width:10;stroke-linecap:round;stroke-linejoin:round;stroke-miterlimit:10" width="55.817" height="91.934" x="299.065" y="227.413"/><rect style="fill:none;stroke:#5f4a57;stroke-width:10;stroke-linecap:round;stroke-linejoin:round;stroke-miterlimit:10" width="174.019" height="105.068" x="266.231" y="319.347"/><path style="fill:none;stroke:#5f4a57;stroke-width:10;stroke-linecap:round;stroke-linejoin:round;stroke-miterlimit:10" d="M354.796,227.413c0.052-1.627,0.086-3.266,0.086-4.925c0-36.268-27.908-65.667-27.908-65.667s-27.909,29.399-27.909,65.667 c0,1.66,0.036,3.298,0.086,4.925H354.796z"/><line style="fill:none;stroke:#5f4a57;stroke-width:10;stroke-linecap:round;stroke-linejoin:round;stroke-miterlimit:10" x1="326.974" x2="326.974" y1="154.357" y2="129.732"/><line style="fill:none;stroke:#5f4a57;stroke-width:10;stroke-linecap:round;stroke-linejoin:round;stroke-miterlimit:10" x1="290.856" x2="363.09" y1="227.413" y2="227.413"/><g id="细节_2_"><line style="fill:none;stroke:#5f4a57;stroke-width:10;stroke-linecap:round;stroke-linejoin:round;stroke-miterlimit:10" x1="301.426" x2="301.426" y1="319.814" y2="338.553"/><line style="fill:none;stroke:#5f4a57;stroke-width:10;stroke-linecap:round;stroke-linejoin:round;stroke-miterlimit:10" x1="335.969" x2="335.969" y1="319.814" y2="338.553"/><line style="fill:none;stroke:#5f4a57;stroke-width:10;stroke-linecap:round;stroke-linejoin:round;stroke-miterlimit:10" x1="370.513" x2="370.513" y1="319.814" y2="338.553"/><line style="fill:none;stroke:#5f4a57;stroke-width:10;stroke-linecap:round;stroke-linejoin:round;stroke-miterlimit:10" x1="405.055" x2="405.055" y1="319.814" y2="338.553"/><line style="fill:none;stroke:#5f4a57;stroke-width:10;stroke-linecap:round;stroke-linejoin:round;stroke-miterlimit:10" x1="301.426" x2="301.426" y1="382.622" y2="424.419"/><line style="fill:none;stroke:#5f4a57;stroke-width:10;stroke-linecap:round;stroke-linejoin:round;stroke-miterlimit:10" x1="335.969" x2="335.969" y1="382.622" y2="401.361"/><line style="fill:none;stroke:#5f4a57;stroke-width:10;stroke-linecap:round;stroke-linejoin:round;stroke-miterlimit:10" x1="370.513" x2="370.513" y1="382.622" y2="401.361"/><line style="fill:none;stroke:#5f4a57;stroke-width:10;stroke-linecap:round;stroke-linejoin:round;stroke-miterlimit:10" x1="405.055" x2="405.055" y1="382.622" y2="401.361"/><circle style="fill:#5f4a57" cx="326.974" cy="289.379" r="8.208"/><line style="fill:none;stroke:#5f4a57;stroke-width:10;stroke-linecap:round;stroke-linejoin:round;stroke-miterlimit:10" x1="326.974" x2="326.974" y1="227.413" y2="257.093"/></g></g></g><g id="建筑4"><g id="背景_3_"><path style="fill:#fdb967" d="M467.675,71.657c-15.413,0-27.908,12.496-27.908,27.909h55.817 C495.584,84.153,483.088,71.657,467.675,71.657z"/><rect style="fill:#fdb967" width="55.817" height="45.967" x="439.767" y="98.129"/><rect style="fill:#ffa264" width="55.817" height="213.419" x="439.767" y="144.097"/><rect style="fill:#ffa264" width="55.817" height="68.951" x="439.767" y="357.516"/></g><rect id="高光_3_" width="27.909" height="213.419" x="467.675" y="144.097" style="fill:#ffb961"/><g id="勾线_3_"><path style="fill:none;stroke:#5f4a57;stroke-width:10;stroke-linecap:round;stroke-linejoin:round;stroke-miterlimit:10" d="M467.675,70.221c-15.413,0-27.908,12.495-27.908,27.909h55.817C495.584,82.716,483.088,70.221,467.675,70.221z"/><rect style="fill:none;stroke:#5f4a57;stroke-width:10;stroke-linecap:round;stroke-linejoin:round;stroke-miterlimit:10" width="55.817" height="45.967" x="439.767" y="98.129"/><rect style="fill:none;stroke:#5f4a57;stroke-width:10;stroke-linecap:round;stroke-linejoin:round;stroke-miterlimit:10" width="55.817" height="213.419" x="439.767" y="144.097"/><rect style="fill:none;stroke:#5f4a57;stroke-width:10;stroke-linecap:round;stroke-linejoin:round;stroke-miterlimit:10" width="55.817" height="68.951" x="439.767" y="357.516"/><line style="fill:none;stroke:#5f4a57;stroke-width:10;stroke-linecap:round;stroke-linejoin:round;stroke-miterlimit:10" x1="431.558" x2="503.792" y1="98.129" y2="98.129"/><line style="fill:none;stroke:#5f4a57;stroke-width:10;stroke-linecap:round;stroke-linejoin:round;stroke-miterlimit:10" x1="467.675" x2="467.675" y1="66.117" y2="41.491"/><g id="细节_5_"><line style="fill:none;stroke:#5f4a57;stroke-width:10;stroke-linecap:round;stroke-linejoin:round;stroke-miterlimit:10" x1="467.675" x2="467.675" y1="244.25" y2="262.989"/><line style="fill:none;stroke:#5f4a57;stroke-width:10;stroke-linecap:round;stroke-linejoin:round;stroke-miterlimit:10" x1="467.675" x2="467.675" y1="185.953" y2="212.624"/><line style="fill:none;stroke:#5f4a57;stroke-width:10;stroke-linecap:round;stroke-linejoin:round;stroke-miterlimit:10" x1="467.675" x2="467.675" y1="125.358" y2="144.097"/></g></g></g><g id="建筑5"><g id="背景_4_"><rect style="fill:#f3b28b" width="73.876" height="59.102" x="520.209" y="233.98"/><rect style="fill:#e1584e" width="98.501" height="131.336" x="495.584" y="293.903"/></g><g id="高光_4_"><rect style="fill:#fed2ad" width="24.624" height="39.4" x="563.397" y="243.831"/><rect style="fill:#ff878b" width="41.041" height="131.335" x="542.876" y="284.859"/></g><g id="勾线_4_"><rect style="fill:none;stroke:#5f4a57;stroke-width:10;stroke-linecap:round;stroke-linejoin:round;stroke-miterlimit:10" width="73.876" height="59.102" x="520.209" y="233.98"/><rect style="fill:none;stroke:#5f4a57;stroke-width:10;stroke-linecap:round;stroke-linejoin:round;stroke-miterlimit:10" width="98.501" height="131.336" x="495.584" y="293.903"/><g id="细节_3_"><line style="fill:none;stroke:#5f4a57;stroke-width:10;stroke-linecap:round;stroke-linejoin:round;stroke-miterlimit:10" x1="528.418" x2="528.418" y1="353.848" y2="363.217"/><line style="fill:none;stroke:#5f4a57;stroke-width:10;stroke-linecap:round;stroke-linejoin:round;stroke-miterlimit:10" x1="561.251" x2="561.251" y1="353.848" y2="363.217"/><line style="fill:none;stroke:#5f4a57;stroke-width:10;stroke-linecap:round;stroke-linejoin:round;stroke-miterlimit:10" x1="561.251" x2="561.251" y1="386.25" y2="425.803"/><circle style="fill:#5f4a57" cx="528.416" cy="386.248" r="8.208"/><line style="fill:none;stroke:#5f4a57;stroke-width:10;stroke-linecap:round;stroke-linejoin:round;stroke-miterlimit:10" x1="528.418" x2="528.418" y1="321.447" y2="330.816"/><line style="fill:none;stroke:#5f4a57;stroke-width:10;stroke-linecap:round;stroke-linejoin:round;stroke-miterlimit:10" x1="561.251" x2="561.251" y1="321.447" y2="330.816"/></g></g></g><g id="建筑6"><g id="背景_5_"><path style="fill:#fed27f" d="M648.092,110.647h-16.418c-10.879,0-19.7,8.821-19.7,19.701v16.417h55.818v-16.417 C667.792,119.468,658.971,110.647,648.092,110.647z"/><polygon style="fill:#fed27f" points="667.792 179.598 667.792 146.764 611.974 146.764 611.974 179.598 595.557 179.598 595.557 212.432 684.208 212.432 684.208 179.598"/><rect style="fill:#fed27f" width="88.651" height="213.417" x="595.557" y="206.412"/><rect style="fill:#8b7e88" width="88.651" height="68.951" x="595.557" y="356.9"/></g><g id="高光_5_"><polygon style="fill:#ffe6a5" points="667.792 146.971 651.375 146.971 651.375 212.432 684.208 212.432 684.208 179.598 667.792 179.598"/><rect style="fill:#ffe6a5" width="32.833" height="144.469" x="651.375" y="212.624"/><rect style="fill:#9e909d" width="32.833" height="68.951" x="651.375" y="356.9"/><path style="fill:#ffe6a5" d="M648.092,110.647h-16.418c-6.586,0-12.4,3.244-15.978,8.208h15.978 c10.88,0,19.701,8.821,19.701,19.7v8.209h16.417v-16.417C667.792,119.468,658.971,110.647,648.092,110.647z"/></g><g id="勾线_5_"><path style="fill:none;stroke:#5f4a57;stroke-width:10;stroke-linecap:round;stroke-linejoin:round;stroke-miterlimit:10" d="M648.092,110.647h-16.418c-10.879,0-19.7,8.821-19.7,19.701v16.417h55.818v-16.417 C667.792,119.468,658.971,110.647,648.092,110.647z"/><polygon style="fill:none;stroke:#5f4a57;stroke-width:10;stroke-linecap:round;stroke-linejoin:round;stroke-miterlimit:10" points="667.792 179.598 667.792 146.764 611.974 146.764 611.974 179.598 595.557 179.598 595.557 212.432 684.208 212.432 684.208 179.598"/><rect style="fill:none" width="88.651" height="68.951" x="595.557" y="356.9"/><rect style="fill:none;stroke:#5f4a57;stroke-width:10;stroke-linecap:round;stroke-linejoin:round;stroke-miterlimit:10" width="88.651" height="213.419" x="595.557" y="212.432"/><line style="fill:none;stroke:#5f4a57;stroke-width:10;stroke-linecap:round;stroke-linejoin:round;stroke-miterlimit:10" x1="639.883" x2="639.883" y1="110.237" y2="85.611"/><line style="fill:none;stroke:#5f4a57;stroke-width:10;stroke-linecap:round;stroke-linejoin:round;stroke-miterlimit:10" x1="603.766" x2="676.001" y1="146.764" y2="146.764"/><line style="fill:none;stroke:#5f4a57;stroke-width:10;stroke-linecap:round;stroke-linejoin:round;stroke-miterlimit:10" x1="587.35" x2="692.417" y1="212.432" y2="212.432"/><g id="细节_6_"><line style="fill:none;stroke:#5f4a57;stroke-width:10;stroke-linecap:round;stroke-linejoin:round;stroke-miterlimit:10" x1="639.883" x2="639.883" y1="270.641" y2="289.379"/><line style="fill:none;stroke:#5f4a57;stroke-width:10;stroke-linecap:round;stroke-linejoin:round;stroke-miterlimit:10" x1="639.883" x2="639.883" y1="168.794" y2="187.532"/><circle style="fill:#5f4a57" cx="639.883" cy="242.188" r="8.209"/><line style="fill:none;stroke:#5f4a57;stroke-width:10;stroke-linecap:round;stroke-linejoin:round;stroke-miterlimit:10" x1="639.883" x2="639.883" y1="317.288" y2="336.026"/></g></g></g><g id="建筑7"><g id="背景_6_"><rect style="fill:#968895" width="82.085" height="62.384" x="684.208" y="294.722"/><rect style="fill:#f2b38c" width="105.068" height="68.951" x="684.208" y="357.105"/></g><g id="高光_6_"><rect style="fill:#9e909d" width="41.042" height="62.385" x="732.491" y="293.903"/><rect style="fill:#fed2ad" width="57.459" height="68.951" x="732.491" y="356.288"/></g><g id="勾线_6_"><rect style="fill:none;stroke:#5f4a57;stroke-width:10;stroke-linecap:round;stroke-linejoin:round;stroke-miterlimit:10" width="82.085" height="62.384" x="684.208" y="294.722"/><line style="fill:none;stroke:#5f4a57;stroke-width:10;stroke-linecap:round;stroke-linejoin:round;stroke-miterlimit:10" x1="684.208" x2="782.71" y1="294.722" y2="294.722"/><polyline style="fill:none;stroke:#5f4a57;stroke-width:10;stroke-linecap:round;stroke-linejoin:round;stroke-miterlimit:10" points="789.276 426.057 684.208 426.057 684.208 357.105 789.276 357.105"/><g id="细节_4_"><line style="fill:none;stroke:#5f4a57;stroke-width:10;stroke-linecap:round;stroke-linejoin:round;stroke-miterlimit:10" x1="708.834" x2="708.834" y1="320.411" y2="329.78"/><line style="fill:none;stroke:#5f4a57;stroke-width:10;stroke-linecap:round;stroke-linejoin:round;stroke-miterlimit:10" x1="741.668" x2="741.668" y1="320.411" y2="329.78"/><line style="fill:none;stroke:#5f4a57;stroke-width:10;stroke-linecap:round;stroke-linejoin:round;stroke-miterlimit:10" x1="741.668" x2="741.668" y1="389.774" y2="399.144"/><line style="fill:none;stroke:#5f4a57;stroke-width:10;stroke-linecap:round;stroke-linejoin:round;stroke-miterlimit:10" x1="708.834" x2="708.834" y1="389.774" y2="426.057"/><line style="fill:none;stroke:#5f4a57;stroke-width:10;stroke-linecap:round;stroke-linejoin:round;stroke-miterlimit:10" x1="774.501" x2="774.501" y1="389.774" y2="399.144"/></g></g></g></svg>